<svg height="512.02572pt" viewBox="0 0 512.02572 512.02572" width="512.02572pt" xmlns="http://www.w3.org/2000/svg"><path d="m415.617188 415.617188c32.75-4.679688 52.257812-9.535157 52.257812-9.535157l29.308594 14.652344c3.394531 1.683594 7.480468 1.011719 10.160156-1.667969 2.679688-2.675781 3.347656-6.765625 1.667969-10.160156l-14.652344-29.308594c12.058594-55.082031 17.980469-111.335937 17.652344-167.722656.328125-56.386719-5.59375-112.640625-17.652344-167.722656l14.652344-29.308594c1.679687-3.394531 1.011719-7.484375-1.667969-10.160156-2.679688-2.679688-6.765625-3.351563-10.160156-1.667969l-29.308594 14.652344c-55.085938-12.0625-111.335938-17.980469-167.722656-17.6562502-56.390625-.3242188-112.640625 5.5937502-167.726563 17.6562502l-29.308593-14.652344c-3.390626-1.683594-7.480469-1.011719-10.160157 1.667969-2.675781 2.675781-3.347656 6.765625-1.667969 10.160156l14.65625 29.308594s-4.855468 19.507812-9.535156 52.257812zm0 0" fill="#c03a2b"/><path d="m203.046875 97.117188c-4.097656.007812-7.664063-2.808594-8.605469-6.796876-.945312-3.988281.980469-8.105468 4.652344-9.933593l52.964844-26.480469c4.363281-2.179688 9.667968-.410156 11.847656 3.953125s.40625 9.667969-3.957031 11.847656l-52.964844 26.480469c-1.222656.613281-2.570313.929688-3.9375.929688zm0 0" fill="#802f34"/><path d="m141.253906 97.117188c-4.097656.007812-7.664062-2.808594-8.609375-6.796876-.941406-3.988281.984375-8.105468 4.65625-9.933593l52.964844-26.480469c4.363281-2.179688 9.667969-.410156 11.847656 3.953125 2.175781 4.363281.40625 9.667969-3.957031 11.847656l-52.964844 26.480469c-1.222656.613281-2.570312.929688-3.9375.929688zm0 0" fill="#802f34"/><path d="m273.667969 97.117188c-4.097657.007812-7.664063-2.808594-8.609375-6.796876-.941406-3.988281.984375-8.105468 4.65625-9.933593l52.964844-26.480469c4.363281-2.179688 9.667968-.410156 11.847656 3.953125 2.175781 4.363281.40625 9.667969-3.957032 11.847656l-52.964843 26.480469c-1.222657.613281-2.570313.929688-3.9375.929688zm0 0" fill="#802f34"/><path d="m327.789062 105.324219c-4.089843-.003907-7.640624-2.816407-8.582031-6.796875-.9375-3.984375.980469-8.089844 4.636719-9.921875l51.816406-25.871094c2.828125-1.4375 6.207032-1.246094 8.855469.496094 2.648437 1.742187 4.15625 4.773437 3.953125 7.9375-.203125 3.164062-2.085938 5.972656-4.933594 7.367187l-51.816406 25.863282c-1.222656.609374-2.566406.925781-3.929688.925781zm0 0" fill="#802f34"/><path d="m417.214844 100.382812c-4.09375.003907-7.65625-2.808593-8.597656-6.792968-.945313-3.980469.972656-8.09375 4.632812-9.925782l41.851562-20.929687c4.363282-2.179687 9.667969-.410156 11.847657 3.953125 2.179687 4.363281.40625 9.667969-3.957031 11.847656l-41.839844 20.921875c-1.226563.605469-2.574219.921875-3.9375.925781zm0 0" fill="#802f34"/><path d="m407.847656 149.199219c-4.101562.007812-7.664062-2.808594-8.609375-6.796875-.941406-3.988282.984375-8.101563 4.65625-9.929688l51.199219-25.601562c2.820312-1.410156 6.183594-1.207032 8.8125.53125 2.632812 1.742187 4.136719 4.753906 3.949219 7.902344-.191407 3.148437-2.046875 5.957031-4.871094 7.367187l-51.199219 25.601563c-1.222656.613281-2.570312.929687-3.9375.925781zm0 0" fill="#802f34"/><path d="m415.625 193.867188c-4.101562.007812-7.664062-2.808594-8.609375-6.796876-.941406-3.988281.984375-8.101562 4.652344-9.933593l52.261719-26.128907c4.363281-2.179687 9.667968-.40625 11.847656 3.957032 2.175781 4.363281.40625 9.664062-3.957032 11.84375l-52.257812 26.121094c-1.222656.617187-2.570312.9375-3.9375.9375zm0 0" fill="#802f34"/><path d="m420.390625 235.621094c-4.097656.007812-7.664063-2.808594-8.605469-6.796875-.945312-3.988281.984375-8.101563 4.652344-9.929688l47.492188-23.746093c4.363281-2.179688 9.667968-.410157 11.847656 3.953124 2.175781 4.363282.40625 9.667969-3.957032 11.847657l-47.492187 23.734375c-1.222656.617187-2.570313.9375-3.9375.9375zm0 0" fill="#802f34"/><path d="m423.128906 278.347656c-4.101562.007813-7.664062-2.808594-8.609375-6.796875-.941406-3.988281.984375-8.105469 4.652344-9.933593l44.765625-22.332032c2.828125-1.4375 6.207031-1.246094 8.851562.496094 2.648438 1.746094 4.160157 4.773438 3.957032 7.9375s-2.085938 5.976562-4.933594 7.367188l-44.757812 22.332031c-1.21875.609375-2.5625.925781-3.925782.929687zm0 0" fill="#802f34"/><path d="m423.65625 322.308594c-4.09375.003906-7.652344-2.808594-8.597656-6.792969-.941406-3.984375.976562-8.09375 4.636718-9.925781l44.226563-22.160156c2.816406-1.417969 6.179687-1.226563 8.820313.507812 2.636718 1.730469 4.152343 4.738281 3.972656 7.890625-.183594 3.152344-2.03125 5.96875-4.851563 7.386719l-44.222656 22.15625c-1.238281.621094-2.601563.941406-3.984375.9375zm0 0" fill="#802f34"/><path d="m421.628906 367.417969c-4.097656.003906-7.65625-2.808594-8.597656-6.792969-.945312-3.984375.972656-8.09375 4.632812-9.925781l46.265626-23.183594c4.363281-2.179687 9.667968-.40625 11.847656 3.957031 2.175781 4.363282.40625 9.664063-3.957032 11.84375l-46.257812 23.128906c-1.21875.625-2.566406.957032-3.933594.972657zm0 0" fill="#802f34"/><path d="m44.152344 105.945312-29.28125-14.636718c-3.398438-1.691406-7.496094-1.023438-10.179688 1.660156s-3.351562 6.78125-1.660156 10.175781l14.636719 29.28125c-12.0625 55.085938-17.980469 111.335938-17.6562502 167.726563-.3242188 56.386718 5.5937502 112.636718 17.6562502 167.722656l-14.636719 29.28125c-1.691406 3.398438-1.023438 7.496094 1.660156 10.179688 2.683594 2.683593 6.78125 3.351562 10.179688 1.65625l29.28125-14.632813c55.082031 12.058594 111.335937 17.980469 167.722656 17.652344 56.386719.328125 112.640625-5.59375 167.722656-17.652344l29.28125 14.632813c3.398438 1.695312 7.496094 1.027343 10.179688-1.65625 2.683594-2.683594 3.351562-6.78125 1.660156-10.179688l-14.636719-29.28125c12.0625-55.085938 17.980469-111.335938 17.65625-167.722656.324219-56.390625-5.59375-112.640625-17.65625-167.726563l14.636719-29.28125c1.691406-3.394531 1.023438-7.492187-1.660156-10.175781s-6.78125-3.351562-10.179688-1.660156l-29.28125 14.636718c-55.082031-12.0625-111.335937-17.984374-167.722656-17.65625-56.386719-.328124-112.640625 5.59375-167.722656 17.65625zm0 0" fill="#e64c3c"/><g fill="#c03a2b"><path d="m158.910156 264.839844c-2.339844 0-4.585937-.929688-6.242187-2.585938l-22.863281-22.863281c-3.453126-3.445313-3.460938-9.042969-.011719-12.496094 3.445312-3.453125 9.039062-3.460937 12.492187-.011719l22.867188 22.863282c2.542968 2.519531 3.308594 6.328125 1.941406 9.640625-1.371094 3.308593-4.601562 5.464843-8.183594 5.453125zm0 0"/><path d="m111.152344 217.082031c-2.339844 0-4.585938-.929687-6.242188-2.585937l-22.863281-22.863282c-3.34375-3.464843-3.296875-8.96875.109375-12.375 3.402344-3.40625 8.910156-3.453124 12.375-.105468l22.863281 22.863281c2.523438 2.523437 3.277344 6.320313 1.910157 9.617187-1.363282 3.300782-4.582032 5.449219-8.152344 5.449219zm0 0"/><path d="m88.289062 264.839844c-3.570312 0-6.789062-2.152344-8.152343-5.449219-1.367188-3.296875-.613281-7.09375 1.910156-9.617187l22.863281-22.863282c3.449219-3.457031 9.042969-3.460937 12.496094-.015625 3.453125 3.449219 3.460938 9.042969.011719 12.496094l-22.863281 22.863281c-1.660157 1.664063-3.914063 2.59375-6.265626 2.585938zm0 0"/><path d="m136.046875 217.082031c-3.570313 0-6.789063-2.148437-8.15625-5.449219-1.363281-3.296874-.609375-7.09375 1.914063-9.617187l22.863281-22.863281c3.464843-3.347656 8.96875-3.300782 12.375.105468s3.453125 8.910157.109375 12.375l-22.867188 22.863282c-1.652344 1.65625-3.898437 2.585937-6.238281 2.585937zm0 0"/><path d="m335.460938 264.839844c-2.339844 0-4.585938-.929688-6.242188-2.585938l-22.863281-22.863281c-2.234375-2.230469-3.109375-5.480469-2.292969-8.53125.8125-3.050781 3.191406-5.433594 6.238281-6.253906 3.050781-.820313 6.304688.046875 8.539063 2.277343l22.863281 22.863282c2.542969 2.519531 3.308594 6.328125 1.941406 9.640625-1.371093 3.308593-4.601562 5.464843-8.183593 5.453125zm0 0"/><path d="m287.703125 217.082031c-2.339844 0-4.585937-.929687-6.242187-2.585937l-22.863282-22.863282c-3.34375-3.464843-3.296875-8.96875.109375-12.375s8.910157-3.453124 12.375-.105468l22.863281 22.863281c2.523438 2.523437 3.277344 6.320313 1.914063 9.617187-1.367187 3.300782-4.585937 5.449219-8.15625 5.449219zm0 0"/><path d="m264.839844 264.839844c-3.570313 0-6.789063-2.152344-8.152344-5.449219-1.367188-3.296875-.613281-7.09375 1.910156-9.617187l22.863282-22.863282c3.449218-3.457031 9.042968-3.460937 12.496093-.015625 3.457031 3.449219 3.460938 9.042969.015625 12.496094l-22.863281 22.863281c-1.664063 1.664063-3.917969 2.59375-6.269531 2.585938zm0 0"/><path d="m312.597656 217.082031c-3.570312 0-6.789062-2.148437-8.152344-5.449219-1.367187-3.296874-.613281-7.09375 1.910157-9.617187l22.863281-22.863281c3.464844-3.347656 8.972656-3.300782 12.375.105468 3.40625 3.40625 3.453125 8.910157.109375 12.375l-22.863281 22.863282c-1.65625 1.65625-3.902344 2.585937-6.242188 2.585937zm0 0"/><path d="m158.910156 423.738281c-2.339844 0-4.585937-.933593-6.242187-2.585937l-22.863281-22.867188c-2.234376-2.226562-3.109376-5.480468-2.296876-8.53125.816407-3.050781 3.195313-5.433594 6.242188-6.253906s6.300781.046875 8.535156 2.277344l22.867188 22.863281c2.542968 2.523437 3.308594 6.332031 1.941406 9.640625-1.371094 3.3125-4.601562 5.464844-8.183594 5.457031zm0 0"/><path d="m111.152344 375.980469c-2.339844 0-4.585938-.929688-6.242188-2.585938l-22.863281-22.863281c-3.34375-3.464844-3.296875-8.972656.109375-12.375 3.402344-3.40625 8.910156-3.453125 12.375-.109375l22.863281 22.863281c2.523438 2.527344 3.277344 6.320313 1.910157 9.621094-1.363282 3.296875-4.582032 5.449219-8.152344 5.449219zm0 0"/><path d="m88.289062 423.738281c-3.570312-.003906-6.789062-2.152343-8.152343-5.449219-1.367188-3.300781-.613281-7.097656 1.910156-9.621093l22.863281-22.863281c2.230469-2.234376 5.484375-3.109376 8.53125-2.296876 3.050782.816407 5.4375 3.195313 6.257813 6.242188.820312 3.046875-.050781 6.300781-2.28125 8.535156l-22.863281 22.867188c-1.660157 1.660156-3.914063 2.589844-6.265626 2.585937zm0 0"/><path d="m136.046875 375.980469c-3.570313 0-6.789063-2.152344-8.15625-5.449219-1.363281-3.300781-.609375-7.09375 1.914063-9.621094l22.863281-22.863281c3.464843-3.34375 8.96875-3.296875 12.375.109375 3.40625 3.402344 3.453125 8.910156.109375 12.375l-22.867188 22.863281c-1.652344 1.65625-3.898437 2.585938-6.238281 2.585938zm0 0"/><path d="m335.460938 423.738281c-2.339844 0-4.585938-.933593-6.242188-2.585937l-22.863281-22.867188c-2.234375-2.226562-3.109375-5.480468-2.292969-8.53125.8125-3.050781 3.191406-5.433594 6.238281-6.253906 3.050781-.820312 6.304688.046875 8.539063 2.277344l22.863281 22.863281c2.542969 2.523437 3.308594 6.332031 1.941406 9.640625-1.371093 3.3125-4.601562 5.464844-8.183593 5.457031zm0 0"/><path d="m287.703125 375.980469c-2.339844 0-4.585937-.929688-6.242187-2.585938l-22.863282-22.863281c-3.34375-3.464844-3.296875-8.972656.109375-12.375 3.40625-3.40625 8.910157-3.453125 12.375-.109375l22.863281 22.863281c2.523438 2.527344 3.277344 6.320313 1.914063 9.621094-1.367187 3.296875-4.585937 5.449219-8.15625 5.449219zm0 0"/><path d="m264.839844 423.738281c-3.570313-.003906-6.789063-2.152343-8.152344-5.449219-1.367188-3.300781-.613281-7.097656 1.910156-9.621093l22.863282-22.863281c2.230468-2.234376 5.484374-3.109376 8.535156-2.296876 3.046875.816407 5.433594 3.195313 6.253906 6.242188s-.046875 6.300781-2.277344 8.535156l-22.863281 22.867188c-1.664063 1.660156-3.917969 2.589844-6.269531 2.585937zm0 0"/><path d="m312.597656 375.980469c-3.570312 0-6.789062-2.152344-8.152344-5.449219-1.367187-3.300781-.613281-7.09375 1.910157-9.621094l22.863281-22.863281c3.464844-3.34375 8.972656-3.296875 12.375.109375 3.40625 3.402344 3.453125 8.910156.109375 12.375l-22.863281 22.863281c-1.65625 1.65625-3.902344 2.585938-6.242188 2.585938zm0 0"/></g><path d="m150.082031 220.703125c0 14.625-11.855469 26.480469-26.484375 26.480469-14.625 0-26.480468-11.855469-26.480468-26.480469s11.855468-26.484375 26.480468-26.484375c14.628906 0 26.484375 11.859375 26.484375 26.484375zm0 0" fill="#fb7b76"/><path d="m326.632812 220.703125c0 14.625-11.855468 26.480469-26.480468 26.480469-14.628906 0-26.484375-11.855469-26.484375-26.480469s11.855469-26.484375 26.484375-26.484375c14.625 0 26.480468 11.859375 26.480468 26.484375zm0 0" fill="#fb7b76"/><path d="m150.082031 379.597656c0 14.628906-11.855469 26.484375-26.484375 26.484375-14.625 0-26.480468-11.855469-26.480468-26.484375 0-14.625 11.855468-26.480468 26.480468-26.480468 14.628906 0 26.484375 11.855468 26.484375 26.480468zm0 0" fill="#fb7b76"/><path d="m326.632812 379.597656c0 14.628906-11.855468 26.484375-26.480468 26.484375-14.628906 0-26.484375-11.855469-26.484375-26.484375 0-14.625 11.855469-26.480468 26.484375-26.480468 14.625 0 26.480468 11.855468 26.480468 26.480468zm0 0" fill="#fb7b76"/></svg>