<svg height="512" viewBox="0 0 512 512" width="512" xmlns="http://www.w3.org/2000/svg"><g id="ESSENTIAL_UI" data-name="ESSENTIAL UI"><path d="m256 0c-141.38 0-256 114.61-256 256s114.62 256 256 256 256-114.62 256-256-114.61-256-256-256z" fill="#4193d2"/><path d="m120.56 400.82c153.63 0 278.17-124.54 278.17-278.16a277.77 277.77 0 0 0 -14.28-88.14 254.83 254.83 0 0 0 -128.45-34.52c-141.38 0-256 114.62-256 256a254.81 254.81 0 0 0 36.57 131.91 278.14 278.14 0 0 0 83.99 12.91z" fill="#48a4df"/><path d="m391.89 256a28.36 28.36 0 0 1 -28.36 28.36h-107.53a28.35 28.35 0 0 1 -28.36-28.36v-166.79a28.36 28.36 0 0 1 56.72 0v138.43h79.17a28.36 28.36 0 0 1 28.36 28.36z" fill="#fff"/></g></svg>