<svg id="Capa_1" enable-background="new 0 0 512 512" height="512" viewBox="0 0 512 512" width="512" xmlns="http://www.w3.org/2000/svg"><g><g><path d="m418.77 426.12h-325.54v-263.305c0-78.909 63.968-142.876 142.876-142.876h39.787c78.909 0 142.876 63.968 142.876 142.876v263.305z" fill="#f2fbff"/><path d="m261.34 19.936c-78.904 0-142.877 63.973-142.877 142.877v263.312h-25.238v-263.312c0-78.904 63.973-142.877 142.877-142.877z" fill="#dff6fd"/><path d="m431.837 391.497v112.915h-351.675v-112.915c0-47.387 38.422-85.809 85.809-85.809h5.522c19.514 0 35.333-15.819 35.333-35.333v-41.622h98.347v41.622c0 19.514 15.819 35.333 35.333 35.333h5.522c47.387 0 85.809 38.422 85.809 85.809z" fill="#fed2a4"/><path d="m232.064 228.734v41.622c0 19.514-15.819 35.333-35.333 35.333h-5.522c-47.387 0-85.809 38.422-85.809 85.809v112.915h-25.238v-112.914c0-47.387 38.422-85.809 85.809-85.809h5.522c19.514 0 35.333-15.819 35.333-35.333v-41.622z" fill="#ffbd86"/><path d="m373.962 426.226h.091v78.187h-236.016v-78.187c-.061-1.07-.091-2.14-.091-3.22 0-33.667 27.297-60.955 60.965-60.955.495 0 .989.01 1.474.02l1.03.03c.384.02.767.03 1.151.061.404.02.808.05 1.201.081.525.04 1.04.091 1.555.141 1.474.151 2.928.363 4.361.616.626.111 1.252.232 1.868.363 20.513 4.331 37.221 18.979 44.449 38.261 8.662-23.118 30.952-39.573 57.088-39.573 33.667 0 60.965 27.287 60.965 60.955-.001 1.08-.031 2.15-.091 3.22z" fill="#f2fbff"/><path d="m163.184 423.006c0 1.08.03 2.15.091 3.22v78.187h-25.238v-78.187c-.061-1.07-.091-2.14-.091-3.22 0-33.667 27.297-60.955 60.965-60.955.495 0 .989.01 1.474.02l1.03.03c.384.02.767.03 1.151.061.404.02.808.05 1.201.081.525.04 1.04.091 1.555.141 1.474.151 2.928.363 4.361.616.626.111 1.252.232 1.868.363-27.621 5.795-48.367 30.296-48.367 59.643z" fill="#dff6fd"/><path d="m316.719 182.799h40.085c11.151 0 20.19-9.039 20.19-20.19v-13.064c0-11.151-9.039-20.19-20.19-20.19h-40.085z" fill="#ffbd86"/><path d="m195.281 182.799h-40.085c-11.151 0-20.19-9.039-20.19-20.19v-13.064c0-11.151 9.039-20.19 20.19-20.19h40.085z" fill="#ffbd86"/><path d="m302.054 46.262v5.169h-92.108v-5.169c0-2.766.293-5.472.848-8.076 3.715-17.485 19.231-30.598 37.827-30.598h14.759c18.575 0 34.081 13.083 37.816 30.548.565 2.614.858 5.34.858 8.126z" fill="#c68d7a"/><path d="m305.173 242.331v25.238c-14.426 12.902-31.224 20.937-49.174 20.937-.111 0-.232 0-.343-.01-17.768-.273-34.465-8.419-48.83-21.321v-25.238c14.365 12.892 31.063 21.038 48.83 21.321.111.01.232.01.343.01 17.94 0 34.748-8.046 49.174-20.937z" fill="#ffbd86"/><path d="m268.618 7.941c-18.888 2.554-33.435 18.737-33.435 38.321v5.169h-25.238v-5.169c0-21.361 17.313-38.675 38.675-38.675h14.759c1.777.001 3.523.122 5.239.354z" fill="#bc7c63"/><path d="m350.45 139.17c0 56.806-42.289 126.826-94.45 126.826s-94.45-70.02-94.45-126.826c0-9.469 1.171-18.636 3.382-27.348 10.994-43.52 47.599-75.492 91.069-75.492 43.571 0 80.247 32.123 91.139 75.805 2.159 8.611 3.31 17.677 3.31 27.035z" fill="#fed2a4"/><path d="m302.054 45.253v5.169h-4.26c-10.257-5.33-21.493-8.742-33.354-9.843-2.766-.262-5.573-.394-8.399-.394h-.505c-14.769.081-28.761 3.745-41.279 10.237h-4.311v-5.169c0-2.766.293-5.472.848-8.076 13.366-7.672 28.6-12.044 44.742-12.134h.505c2.827 0 5.633.131 8.399.394 13.174 1.222 25.611 5.31 36.757 11.69.564 2.614.857 5.339.857 8.126z" fill="#bc7c63"/><path d="m268.618 264.633c-4.129.888-8.339 1.363-12.619 1.363-52.162 0-94.45-70.02-94.45-126.826 0-56.795 42.289-102.84 94.45-102.84 4.28 0 8.49.313 12.619.919-46.195 6.703-81.831 49.779-81.831 101.921 0 52.152 35.636 115.428 81.831 125.463z" fill="#ffbd86"/><path d="m347.139 112.135c-11.226 7.773-24.844 12.316-39.533 12.316-26.83 0-50.096-15.184-61.714-37.42-.694-1.327-2.52-1.465-3.407-.258-12.67 17.226-33.069 28.421-56.102 28.421-7.491 0-14.699-1.181-21.452-3.372 10.994-43.52 47.599-75.492 91.069-75.492 43.57.001 80.246 32.123 91.139 75.805z" fill="#c68d7a"/><path d="m190.169 111.822c2.867.929 5.815 1.676 8.823 2.231-4.089.747-8.308 1.141-12.609 1.141-7.491 0-14.699-1.181-21.452-3.372 10.994-43.52 47.599-75.492 91.069-75.492 4.28 0 8.49.313 12.619.919-37.807 5.482-68.537 35.333-78.45 74.573z" fill="#bc7c63"/></g><g><path d="m209.853 49.184.014-3.109c.095-21.361 17.485-38.598 38.846-38.503l14.759.066c21.361.095 38.598 17.485 38.503 38.846l-.014 3.109" style="fill:none;stroke:#000;stroke-width:15.143;stroke-linecap:round;stroke-linejoin:round;stroke-miterlimit:10.095"/><path d="m256 234.568c-9.931 0-19.267-3.867-26.289-10.889-2.957-2.957-2.957-7.751 0-10.708 2.957-2.956 7.751-2.956 10.708 0 4.162 4.162 9.695 6.454 15.581 6.454s11.419-2.292 15.581-6.454c2.955-2.957 7.75-2.957 10.707 0s2.957 7.751 0 10.708c-7.021 7.022-16.357 10.889-26.288 10.889z"/><g style="fill:none;stroke:#000;stroke-width:15.143;stroke-linecap:round;stroke-linejoin:round;stroke-miterlimit:10.095"><path d="m138.037 504.429s-.091-80.327-.091-81.407c0-33.667 27.297-60.955 60.965-60.955 26.136 0 48.427 16.455 57.088 39.573 8.662-23.118 30.952-39.573 57.088-39.573 33.667 0 60.965 27.287 60.965 60.955v81.408"/><path d="m350.453 139.19c0 56.801-42.288 126.823-94.452 126.823s-94.452-70.022-94.452-126.823 42.287-102.848 94.451-102.848 94.453 46.047 94.453 102.848z"/><path d="m164.931 111.837c6.754 2.191 13.962 3.372 21.452 3.372 23.033 0 43.431-11.195 56.102-28.421.887-1.205 2.714-1.068 3.407.258 11.618 22.236 34.884 37.42 61.714 37.42 14.688 0 28.307-4.543 39.533-12.316"/><path d="m93.225 346.005v-183.177c0-73.261 55.15-133.65 126.2-141.918"/><path d="m418.774 346.005v-55.776"/><path d="m292.574 20.91c71.05 8.268 126.2 68.657 126.2 141.918v92.068"/><path d="m161.973 129.373h-6.774c-11.155 0-20.19 9.035-20.19 20.19v13.063c0 11.145 9.035 20.19 20.19 20.19h13.719"/><path d="m350.026 129.373h6.774c11.155 0 20.19 9.035 20.19 20.19v13.063c0 11.145-9.035 20.19-20.19 20.19h-13.72"/><path d="m346.997 504.429h27.055 55.766c1.116 0 2.019-.904 2.019-2.019v-110.896c0-47.391-38.418-85.809-85.809-85.809h-5.522c-19.514 0-35.333-15.819-35.333-35.333v-25.995"/><path d="m311.664 504.429h-173.627-55.856c-1.116 0-2.019-.904-2.019-2.019v-110.896c0-47.391 38.418-85.809 85.809-85.809h5.522c19.514 0 35.333-15.819 35.333-35.333v-25.995"/></g></g></g></svg>