<svg xmlns="http://www.w3.org/2000/svg" version="1.1" xmlns:xlink="http://www.w3.org/1999/xlink" width="512" height="512" x="0" y="0" viewBox="0 0 328.061 328.061" style="enable-background:new 0 0 512 512" xml:space="preserve" class=""><g><path d="M65.516 306.503c6.84 2.486 22.08 5.604 27.99 4.05 0 0 6.84 7.767 13.373 6.529 6.535-1.248-3.42 3.423-.932 5.598 2.486 2.18 13.059-2.796 19.591 0 6.532 2.802 8.399 3.418 13.686 3.106 5.287-.311 9.333 2.941 14.621.073 0 0 2.327 4.018 10.18 1.196 7.858 2.821 10.184-1.196 10.184-1.196 5.281 2.879 9.33-.378 14.612-.073 5.292.312 7.156-.311 13.69-3.106 6.53-2.796 17.104 2.18 19.589 0 2.491-2.175-7.461-6.84-.932-5.598 6.529 1.248 13.375-6.529 13.375-6.529 5.903 1.554 21.143-1.554 27.987-4.05 6.846-2.495 9.643 0 9.643 0-4.045-4.665-12.443-8.088-12.443-8.088s2.186-3.418-1.554-6.535c-3.729-3.106-24.254.938-30.162-26.118-5.908-27.061-13.06-30.168-13.687-54.122-.621-23.943-23.943-51.312-16.486-88.944 7.467-37.632-.311-50.225-4.194-61.575-3.889-11.354-12.128-19.439-5.442-32.345 6.685-12.907-.782-32.032-6.841-28.301-6.058 3.733-16.326 10.734-17.333 10.734-1.008 0-11.273-7.001-17.334-10.734-6.061-3.73-13.528 15.395-6.84 28.301 6.685 12.906-1.554 20.992-5.44 32.345-3.889 11.351-11.666 23.943-4.199 61.575 7.464 37.632-15.86 64.996-16.487 88.944-.624 23.954-7.772 27.062-13.683 54.122-5.908 27.056-26.434 23.012-30.167 26.118-3.731 3.112-1.554 6.535-1.554 6.535s-8.399 3.423-12.438 8.088c-.012 0 2.787-2.485 9.627 0z" fill="#fcfcfc" opacity="1" data-original="#000000"></path></g></svg>