<svg xmlns="http://www.w3.org/2000/svg" xmlns:xlink="http://www.w3.org/1999/xlink" width="500" zoomAndPan="magnify" viewBox="0 0 375 374.999991" height="500" preserveAspectRatio="xMidYMid meet" version="1.0"><defs><clipPath id="11081a6616"><path d="M 199 187 L 264 187 L 264 245 L 199 245 Z M 199 187 " clip-rule="nonzero"/></clipPath><clipPath id="a4403110d6"><path d="M 154.480469 56.382812 L 310.691406 155.898438 L 207.03125 318.617188 L 50.820312 219.101562 Z M 154.480469 56.382812 " clip-rule="nonzero"/></clipPath><clipPath id="b8bb4b085b"><path d="M 154.480469 56.382812 L 310.691406 155.898438 L 207.03125 318.617188 L 50.820312 219.101562 Z M 154.480469 56.382812 " clip-rule="nonzero"/></clipPath><clipPath id="00a2522179"><path d="M 154.480469 56.382812 L 310.691406 155.898438 L 207.03125 318.617188 L 50.820312 219.101562 Z M 154.480469 56.382812 " clip-rule="nonzero"/></clipPath><clipPath id="d4ede4b75b"><path d="M 201 190 L 261 190 L 261 243 L 201 243 Z M 201 190 " clip-rule="nonzero"/></clipPath><clipPath id="d032d3b6bd"><path d="M 154.480469 56.382812 L 310.691406 155.898438 L 207.03125 318.617188 L 50.820312 219.101562 Z M 154.480469 56.382812 " clip-rule="nonzero"/></clipPath><clipPath id="c233710daa"><path d="M 154.480469 56.382812 L 310.691406 155.898438 L 207.03125 318.617188 L 50.820312 219.101562 Z M 154.480469 56.382812 " clip-rule="nonzero"/></clipPath><clipPath id="34260f43a3"><path d="M 154.480469 56.382812 L 310.691406 155.898438 L 207.03125 318.617188 L 50.820312 219.101562 Z M 154.480469 56.382812 " clip-rule="nonzero"/></clipPath><clipPath id="66c4c5846e"><path d="M 236 184 L 268 184 L 268 220 L 236 220 Z M 236 184 " clip-rule="nonzero"/></clipPath><clipPath id="50c3c0abb0"><path d="M 154.480469 56.382812 L 310.691406 155.898438 L 207.03125 318.617188 L 50.820312 219.101562 Z M 154.480469 56.382812 " clip-rule="nonzero"/></clipPath><clipPath id="f6d7b576ce"><path d="M 154.480469 56.382812 L 310.691406 155.898438 L 207.03125 318.617188 L 50.820312 219.101562 Z M 154.480469 56.382812 " clip-rule="nonzero"/></clipPath><clipPath id="650f8012ed"><path d="M 154.480469 56.382812 L 310.691406 155.898438 L 207.03125 318.617188 L 50.820312 219.101562 Z M 154.480469 56.382812 " clip-rule="nonzero"/></clipPath><clipPath id="f2002695f7"><path d="M 237 186 L 267 186 L 267 219 L 237 219 Z M 237 186 " clip-rule="nonzero"/></clipPath><clipPath id="4b586ebdf2"><path d="M 154.480469 56.382812 L 310.691406 155.898438 L 207.03125 318.617188 L 50.820312 219.101562 Z M 154.480469 56.382812 " clip-rule="nonzero"/></clipPath><clipPath id="9649533a0b"><path d="M 154.480469 56.382812 L 310.691406 155.898438 L 207.03125 318.617188 L 50.820312 219.101562 Z M 154.480469 56.382812 " clip-rule="nonzero"/></clipPath><clipPath id="5bb4243f79"><path d="M 154.480469 56.382812 L 310.691406 155.898438 L 207.03125 318.617188 L 50.820312 219.101562 Z M 154.480469 56.382812 " clip-rule="nonzero"/></clipPath><clipPath id="4a50a3ae82"><path d="M 158 116 L 205 116 L 205 152 L 158 152 Z M 158 116 " clip-rule="nonzero"/></clipPath><clipPath id="abad6d6ddc"><path d="M 154.480469 56.382812 L 310.691406 155.898438 L 207.03125 318.617188 L 50.820312 219.101562 Z M 154.480469 56.382812 " clip-rule="nonzero"/></clipPath><clipPath id="bfc2a2f485"><path d="M 154.480469 56.382812 L 310.691406 155.898438 L 207.03125 318.617188 L 50.820312 219.101562 Z M 154.480469 56.382812 " clip-rule="nonzero"/></clipPath><clipPath id="cf4cb13541"><path d="M 154.480469 56.382812 L 310.691406 155.898438 L 207.03125 318.617188 L 50.820312 219.101562 Z M 154.480469 56.382812 " clip-rule="nonzero"/></clipPath><clipPath id="8bc58d40ed"><path d="M 160 117 L 203 117 L 203 150 L 160 150 Z M 160 117 " clip-rule="nonzero"/></clipPath><clipPath id="9fd1afd37f"><path d="M 154.480469 56.382812 L 310.691406 155.898438 L 207.03125 318.617188 L 50.820312 219.101562 Z M 154.480469 56.382812 " clip-rule="nonzero"/></clipPath><clipPath id="fdc69f1e31"><path d="M 154.480469 56.382812 L 310.691406 155.898438 L 207.03125 318.617188 L 50.820312 219.101562 Z M 154.480469 56.382812 " clip-rule="nonzero"/></clipPath><clipPath id="1575aee7bf"><path d="M 154.480469 56.382812 L 310.691406 155.898438 L 207.03125 318.617188 L 50.820312 219.101562 Z M 154.480469 56.382812 " clip-rule="nonzero"/></clipPath><clipPath id="d9378f5cf5"><path d="M 133 174 L 162 174 L 162 200 L 133 200 Z M 133 174 " clip-rule="nonzero"/></clipPath><clipPath id="73bef78557"><path d="M 154.480469 56.382812 L 310.691406 155.898438 L 207.03125 318.617188 L 50.820312 219.101562 Z M 154.480469 56.382812 " clip-rule="nonzero"/></clipPath><clipPath id="ab934bf010"><path d="M 154.480469 56.382812 L 310.691406 155.898438 L 207.03125 318.617188 L 50.820312 219.101562 Z M 154.480469 56.382812 " clip-rule="nonzero"/></clipPath><clipPath id="62e699e381"><path d="M 154.480469 56.382812 L 310.691406 155.898438 L 207.03125 318.617188 L 50.820312 219.101562 Z M 154.480469 56.382812 " clip-rule="nonzero"/></clipPath><clipPath id="ea87b7f8ca"><path d="M 134 175 L 161 175 L 161 199 L 134 199 Z M 134 175 " clip-rule="nonzero"/></clipPath><clipPath id="97953f746d"><path d="M 154.480469 56.382812 L 310.691406 155.898438 L 207.03125 318.617188 L 50.820312 219.101562 Z M 154.480469 56.382812 " clip-rule="nonzero"/></clipPath><clipPath id="fcb73c97dc"><path d="M 154.480469 56.382812 L 310.691406 155.898438 L 207.03125 318.617188 L 50.820312 219.101562 Z M 154.480469 56.382812 " clip-rule="nonzero"/></clipPath><clipPath id="c9c3bea75d"><path d="M 154.480469 56.382812 L 310.691406 155.898438 L 207.03125 318.617188 L 50.820312 219.101562 Z M 154.480469 56.382812 " clip-rule="nonzero"/></clipPath><clipPath id="4e05be445f"><path d="M 167 183 L 218 183 L 218 244 L 167 244 Z M 167 183 " clip-rule="nonzero"/></clipPath><clipPath id="e96adc0af4"><path d="M 154.480469 56.382812 L 310.691406 155.898438 L 207.03125 318.617188 L 50.820312 219.101562 Z M 154.480469 56.382812 " clip-rule="nonzero"/></clipPath><clipPath id="6c6b34c3c7"><path d="M 154.480469 56.382812 L 310.691406 155.898438 L 207.03125 318.617188 L 50.820312 219.101562 Z M 154.480469 56.382812 " clip-rule="nonzero"/></clipPath><clipPath id="5f2cd2e987"><path d="M 154.480469 56.382812 L 310.691406 155.898438 L 207.03125 318.617188 L 50.820312 219.101562 Z M 154.480469 56.382812 " clip-rule="nonzero"/></clipPath><clipPath id="0f4739bd22"><path d="M 170 185 L 216 185 L 216 242 L 170 242 Z M 170 185 " clip-rule="nonzero"/></clipPath><clipPath id="01a05aa9a9"><path d="M 154.480469 56.382812 L 310.691406 155.898438 L 207.03125 318.617188 L 50.820312 219.101562 Z M 154.480469 56.382812 " clip-rule="nonzero"/></clipPath><clipPath id="d66742a22d"><path d="M 154.480469 56.382812 L 310.691406 155.898438 L 207.03125 318.617188 L 50.820312 219.101562 Z M 154.480469 56.382812 " clip-rule="nonzero"/></clipPath><clipPath id="a5f121b048"><path d="M 154.480469 56.382812 L 310.691406 155.898438 L 207.03125 318.617188 L 50.820312 219.101562 Z M 154.480469 56.382812 " clip-rule="nonzero"/></clipPath><clipPath id="e26a202578"><path d="M 208 138 L 264 138 L 264 183 L 208 183 Z M 208 138 " clip-rule="nonzero"/></clipPath><clipPath id="3fca735f1d"><path d="M 154.480469 56.382812 L 310.691406 155.898438 L 207.03125 318.617188 L 50.820312 219.101562 Z M 154.480469 56.382812 " clip-rule="nonzero"/></clipPath><clipPath id="c458a2cb7f"><path d="M 154.480469 56.382812 L 310.691406 155.898438 L 207.03125 318.617188 L 50.820312 219.101562 Z M 154.480469 56.382812 " clip-rule="nonzero"/></clipPath><clipPath id="9f7d4448b1"><path d="M 154.480469 56.382812 L 310.691406 155.898438 L 207.03125 318.617188 L 50.820312 219.101562 Z M 154.480469 56.382812 " clip-rule="nonzero"/></clipPath><clipPath id="9270c7315c"><path d="M 210 140 L 262 140 L 262 181 L 210 181 Z M 210 140 " clip-rule="nonzero"/></clipPath><clipPath id="c70b7f015a"><path d="M 154.480469 56.382812 L 310.691406 155.898438 L 207.03125 318.617188 L 50.820312 219.101562 Z M 154.480469 56.382812 " clip-rule="nonzero"/></clipPath><clipPath id="7e02cd0677"><path d="M 154.480469 56.382812 L 310.691406 155.898438 L 207.03125 318.617188 L 50.820312 219.101562 Z M 154.480469 56.382812 " clip-rule="nonzero"/></clipPath><clipPath id="fcce5c8eae"><path d="M 154.480469 56.382812 L 310.691406 155.898438 L 207.03125 318.617188 L 50.820312 219.101562 Z M 154.480469 56.382812 " clip-rule="nonzero"/></clipPath><clipPath id="013a258ea6"><path d="M 164 155 L 181 155 L 181 175 L 164 175 Z M 164 155 " clip-rule="nonzero"/></clipPath><clipPath id="4c35dcc0dc"><path d="M 154.480469 56.382812 L 310.691406 155.898438 L 207.03125 318.617188 L 50.820312 219.101562 Z M 154.480469 56.382812 " clip-rule="nonzero"/></clipPath><clipPath id="f94c17e0fa"><path d="M 154.480469 56.382812 L 310.691406 155.898438 L 207.03125 318.617188 L 50.820312 219.101562 Z M 154.480469 56.382812 " clip-rule="nonzero"/></clipPath><clipPath id="58af066dc1"><path d="M 154.480469 56.382812 L 310.691406 155.898438 L 207.03125 318.617188 L 50.820312 219.101562 Z M 154.480469 56.382812 " clip-rule="nonzero"/></clipPath><clipPath id="432b6eeb42"><path d="M 165 155 L 180 155 L 180 174 L 165 174 Z M 165 155 " clip-rule="nonzero"/></clipPath><clipPath id="049137a1bd"><path d="M 154.480469 56.382812 L 310.691406 155.898438 L 207.03125 318.617188 L 50.820312 219.101562 Z M 154.480469 56.382812 " clip-rule="nonzero"/></clipPath><clipPath id="54fbe6f668"><path d="M 154.480469 56.382812 L 310.691406 155.898438 L 207.03125 318.617188 L 50.820312 219.101562 Z M 154.480469 56.382812 " clip-rule="nonzero"/></clipPath><clipPath id="ccd9b129a9"><path d="M 154.480469 56.382812 L 310.691406 155.898438 L 207.03125 318.617188 L 50.820312 219.101562 Z M 154.480469 56.382812 " clip-rule="nonzero"/></clipPath><clipPath id="fc6abfb3ad"><path d="M 220 108 L 243 108 L 243 135 L 220 135 Z M 220 108 " clip-rule="nonzero"/></clipPath><clipPath id="bec8f9ad19"><path d="M 154.480469 56.382812 L 310.691406 155.898438 L 207.03125 318.617188 L 50.820312 219.101562 Z M 154.480469 56.382812 " clip-rule="nonzero"/></clipPath><clipPath id="75c537ba0d"><path d="M 154.480469 56.382812 L 310.691406 155.898438 L 207.03125 318.617188 L 50.820312 219.101562 Z M 154.480469 56.382812 " clip-rule="nonzero"/></clipPath><clipPath id="6642e3a5bf"><path d="M 154.480469 56.382812 L 310.691406 155.898438 L 207.03125 318.617188 L 50.820312 219.101562 Z M 154.480469 56.382812 " clip-rule="nonzero"/></clipPath><clipPath id="c7d53dbf20"><path d="M 221 109 L 242 109 L 242 134 L 221 134 Z M 221 109 " clip-rule="nonzero"/></clipPath><clipPath id="eeb22cb476"><path d="M 154.480469 56.382812 L 310.691406 155.898438 L 207.03125 318.617188 L 50.820312 219.101562 Z M 154.480469 56.382812 " clip-rule="nonzero"/></clipPath><clipPath id="38b694d9eb"><path d="M 154.480469 56.382812 L 310.691406 155.898438 L 207.03125 318.617188 L 50.820312 219.101562 Z M 154.480469 56.382812 " clip-rule="nonzero"/></clipPath><clipPath id="9d50806734"><path d="M 154.480469 56.382812 L 310.691406 155.898438 L 207.03125 318.617188 L 50.820312 219.101562 Z M 154.480469 56.382812 " clip-rule="nonzero"/></clipPath><clipPath id="c2d63c10f7"><path d="M 194 235 L 225 235 L 225 273 L 194 273 Z M 194 235 " clip-rule="nonzero"/></clipPath><clipPath id="195f13c568"><path d="M 154.480469 56.382812 L 310.691406 155.898438 L 207.03125 318.617188 L 50.820312 219.101562 Z M 154.480469 56.382812 " clip-rule="nonzero"/></clipPath><clipPath id="3f21c7dc8e"><path d="M 154.480469 56.382812 L 310.691406 155.898438 L 207.03125 318.617188 L 50.820312 219.101562 Z M 154.480469 56.382812 " clip-rule="nonzero"/></clipPath><clipPath id="3be4cb435e"><path d="M 154.480469 56.382812 L 310.691406 155.898438 L 207.03125 318.617188 L 50.820312 219.101562 Z M 154.480469 56.382812 " clip-rule="nonzero"/></clipPath><clipPath id="ad19e0af25"><path d="M 195 236 L 224 236 L 224 271 L 195 271 Z M 195 236 " clip-rule="nonzero"/></clipPath><clipPath id="b10facae0d"><path d="M 154.480469 56.382812 L 310.691406 155.898438 L 207.03125 318.617188 L 50.820312 219.101562 Z M 154.480469 56.382812 " clip-rule="nonzero"/></clipPath><clipPath id="d8f6292a29"><path d="M 154.480469 56.382812 L 310.691406 155.898438 L 207.03125 318.617188 L 50.820312 219.101562 Z M 154.480469 56.382812 " clip-rule="nonzero"/></clipPath><clipPath id="2fc0e555b4"><path d="M 154.480469 56.382812 L 310.691406 155.898438 L 207.03125 318.617188 L 50.820312 219.101562 Z M 154.480469 56.382812 " clip-rule="nonzero"/></clipPath><clipPath id="1a54c7e103"><path d="M 180 163 L 228 163 L 228 207 L 180 207 Z M 180 163 " clip-rule="nonzero"/></clipPath><clipPath id="929e3c31eb"><path d="M 154.480469 56.382812 L 310.691406 155.898438 L 207.03125 318.617188 L 50.820312 219.101562 Z M 154.480469 56.382812 " clip-rule="nonzero"/></clipPath><clipPath id="8926871217"><path d="M 154.480469 56.382812 L 310.691406 155.898438 L 207.03125 318.617188 L 50.820312 219.101562 Z M 154.480469 56.382812 " clip-rule="nonzero"/></clipPath><clipPath id="5f14c3cd31"><path d="M 154.480469 56.382812 L 310.691406 155.898438 L 207.03125 318.617188 L 50.820312 219.101562 Z M 154.480469 56.382812 " clip-rule="nonzero"/></clipPath><clipPath id="b08891d0b5"><path d="M 182 165 L 226 165 L 226 205 L 182 205 Z M 182 165 " clip-rule="nonzero"/></clipPath><clipPath id="964e78759b"><path d="M 154.480469 56.382812 L 310.691406 155.898438 L 207.03125 318.617188 L 50.820312 219.101562 Z M 154.480469 56.382812 " clip-rule="nonzero"/></clipPath><clipPath id="65b5b585c4"><path d="M 154.480469 56.382812 L 310.691406 155.898438 L 207.03125 318.617188 L 50.820312 219.101562 Z M 154.480469 56.382812 " clip-rule="nonzero"/></clipPath><clipPath id="0c8da9860e"><path d="M 154.480469 56.382812 L 310.691406 155.898438 L 207.03125 318.617188 L 50.820312 219.101562 Z M 154.480469 56.382812 " clip-rule="nonzero"/></clipPath><clipPath id="d860fea61f"><path d="M 146 240 L 184 240 L 184 278 L 146 278 Z M 146 240 " clip-rule="nonzero"/></clipPath><clipPath id="8c8272de04"><path d="M 154.480469 56.382812 L 310.691406 155.898438 L 207.03125 318.617188 L 50.820312 219.101562 Z M 154.480469 56.382812 " clip-rule="nonzero"/></clipPath><clipPath id="b427c2403d"><path d="M 154.480469 56.382812 L 310.691406 155.898438 L 207.03125 318.617188 L 50.820312 219.101562 Z M 154.480469 56.382812 " clip-rule="nonzero"/></clipPath><clipPath id="db54ddf27d"><path d="M 154.480469 56.382812 L 310.691406 155.898438 L 207.03125 318.617188 L 50.820312 219.101562 Z M 154.480469 56.382812 " clip-rule="nonzero"/></clipPath><clipPath id="4e83a944ea"><path d="M 147 242 L 183 242 L 183 277 L 147 277 Z M 147 242 " clip-rule="nonzero"/></clipPath><clipPath id="c359851f62"><path d="M 154.480469 56.382812 L 310.691406 155.898438 L 207.03125 318.617188 L 50.820312 219.101562 Z M 154.480469 56.382812 " clip-rule="nonzero"/></clipPath><clipPath id="1fdbdf0ce3"><path d="M 154.480469 56.382812 L 310.691406 155.898438 L 207.03125 318.617188 L 50.820312 219.101562 Z M 154.480469 56.382812 " clip-rule="nonzero"/></clipPath><clipPath id="0dab383527"><path d="M 154.480469 56.382812 L 310.691406 155.898438 L 207.03125 318.617188 L 50.820312 219.101562 Z M 154.480469 56.382812 " clip-rule="nonzero"/></clipPath><clipPath id="5c10e45f8f"><path d="M 271 172 L 288 172 L 288 194 L 271 194 Z M 271 172 " clip-rule="nonzero"/></clipPath><clipPath id="9543d1010c"><path d="M 154.480469 56.382812 L 310.691406 155.898438 L 207.03125 318.617188 L 50.820312 219.101562 Z M 154.480469 56.382812 " clip-rule="nonzero"/></clipPath><clipPath id="c8e6dbb1e4"><path d="M 154.480469 56.382812 L 310.691406 155.898438 L 207.03125 318.617188 L 50.820312 219.101562 Z M 154.480469 56.382812 " clip-rule="nonzero"/></clipPath><clipPath id="c663125a43"><path d="M 154.480469 56.382812 L 310.691406 155.898438 L 207.03125 318.617188 L 50.820312 219.101562 Z M 154.480469 56.382812 " clip-rule="nonzero"/></clipPath><clipPath id="bdf8624fd6"><path d="M 271 173 L 287 173 L 287 193 L 271 193 Z M 271 173 " clip-rule="nonzero"/></clipPath><clipPath id="923404e5bb"><path d="M 154.480469 56.382812 L 310.691406 155.898438 L 207.03125 318.617188 L 50.820312 219.101562 Z M 154.480469 56.382812 " clip-rule="nonzero"/></clipPath><clipPath id="93e1bf41fb"><path d="M 154.480469 56.382812 L 310.691406 155.898438 L 207.03125 318.617188 L 50.820312 219.101562 Z M 154.480469 56.382812 " clip-rule="nonzero"/></clipPath><clipPath id="15c6e018d2"><path d="M 154.480469 56.382812 L 310.691406 155.898438 L 207.03125 318.617188 L 50.820312 219.101562 Z M 154.480469 56.382812 " clip-rule="nonzero"/></clipPath><clipPath id="add3c192fc"><path d="M 226 242 L 242 242 L 242 260 L 226 260 Z M 226 242 " clip-rule="nonzero"/></clipPath><clipPath id="bfc082d7de"><path d="M 154.480469 56.382812 L 310.691406 155.898438 L 207.03125 318.617188 L 50.820312 219.101562 Z M 154.480469 56.382812 " clip-rule="nonzero"/></clipPath><clipPath id="4cdb5bb3ce"><path d="M 154.480469 56.382812 L 310.691406 155.898438 L 207.03125 318.617188 L 50.820312 219.101562 Z M 154.480469 56.382812 " clip-rule="nonzero"/></clipPath><clipPath id="750e575bbd"><path d="M 154.480469 56.382812 L 310.691406 155.898438 L 207.03125 318.617188 L 50.820312 219.101562 Z M 154.480469 56.382812 " clip-rule="nonzero"/></clipPath><clipPath id="8e25e578d7"><path d="M 226 243 L 241 243 L 241 259 L 226 259 Z M 226 243 " clip-rule="nonzero"/></clipPath><clipPath id="6b4bac5ebb"><path d="M 154.480469 56.382812 L 310.691406 155.898438 L 207.03125 318.617188 L 50.820312 219.101562 Z M 154.480469 56.382812 " clip-rule="nonzero"/></clipPath><clipPath id="71f93977db"><path d="M 154.480469 56.382812 L 310.691406 155.898438 L 207.03125 318.617188 L 50.820312 219.101562 Z M 154.480469 56.382812 " clip-rule="nonzero"/></clipPath><clipPath id="91ad4cefa1"><path d="M 154.480469 56.382812 L 310.691406 155.898438 L 207.03125 318.617188 L 50.820312 219.101562 Z M 154.480469 56.382812 " clip-rule="nonzero"/></clipPath><clipPath id="952785462e"><path d="M 186 154 L 191 154 L 191 159 L 186 159 Z M 186 154 " clip-rule="nonzero"/></clipPath><clipPath id="3cb6b3dd55"><path d="M 154.480469 56.382812 L 310.691406 155.898438 L 207.03125 318.617188 L 50.820312 219.101562 Z M 154.480469 56.382812 " clip-rule="nonzero"/></clipPath><clipPath id="7425580828"><path d="M 154.480469 56.382812 L 310.691406 155.898438 L 207.03125 318.617188 L 50.820312 219.101562 Z M 154.480469 56.382812 " clip-rule="nonzero"/></clipPath><clipPath id="f02503bbd3"><path d="M 154.480469 56.382812 L 310.691406 155.898438 L 207.03125 318.617188 L 50.820312 219.101562 Z M 154.480469 56.382812 " clip-rule="nonzero"/></clipPath><clipPath id="b0d9eb6b14"><path d="M 170 183 L 173 183 L 173 185 L 170 185 Z M 170 183 " clip-rule="nonzero"/></clipPath><clipPath id="75af8589c4"><path d="M 154.480469 56.382812 L 310.691406 155.898438 L 207.03125 318.617188 L 50.820312 219.101562 Z M 154.480469 56.382812 " clip-rule="nonzero"/></clipPath><clipPath id="2a329ea413"><path d="M 154.480469 56.382812 L 310.691406 155.898438 L 207.03125 318.617188 L 50.820312 219.101562 Z M 154.480469 56.382812 " clip-rule="nonzero"/></clipPath><clipPath id="0a94460c1e"><path d="M 154.480469 56.382812 L 310.691406 155.898438 L 207.03125 318.617188 L 50.820312 219.101562 Z M 154.480469 56.382812 " clip-rule="nonzero"/></clipPath><clipPath id="0d4b7b55f2"><path d="M 272 203 L 274 203 L 274 206 L 272 206 Z M 272 203 " clip-rule="nonzero"/></clipPath><clipPath id="4922df55b5"><path d="M 154.480469 56.382812 L 310.691406 155.898438 L 207.03125 318.617188 L 50.820312 219.101562 Z M 154.480469 56.382812 " clip-rule="nonzero"/></clipPath><clipPath id="bb26fe52c8"><path d="M 154.480469 56.382812 L 310.691406 155.898438 L 207.03125 318.617188 L 50.820312 219.101562 Z M 154.480469 56.382812 " clip-rule="nonzero"/></clipPath><clipPath id="2fdea68437"><path d="M 154.480469 56.382812 L 310.691406 155.898438 L 207.03125 318.617188 L 50.820312 219.101562 Z M 154.480469 56.382812 " clip-rule="nonzero"/></clipPath><clipPath id="3003db618d"><path d="M 273 164 L 276 164 L 276 167 L 273 167 Z M 273 164 " clip-rule="nonzero"/></clipPath><clipPath id="c2ecd9ce2a"><path d="M 154.480469 56.382812 L 310.691406 155.898438 L 207.03125 318.617188 L 50.820312 219.101562 Z M 154.480469 56.382812 " clip-rule="nonzero"/></clipPath><clipPath id="4548bbfa1f"><path d="M 154.480469 56.382812 L 310.691406 155.898438 L 207.03125 318.617188 L 50.820312 219.101562 Z M 154.480469 56.382812 " clip-rule="nonzero"/></clipPath><clipPath id="e414575db9"><path d="M 154.480469 56.382812 L 310.691406 155.898438 L 207.03125 318.617188 L 50.820312 219.101562 Z M 154.480469 56.382812 " clip-rule="nonzero"/></clipPath><clipPath id="1138fb4727"><path d="M 189 161 L 192 161 L 192 164 L 189 164 Z M 189 161 " clip-rule="nonzero"/></clipPath><clipPath id="8eccbe978c"><path d="M 154.480469 56.382812 L 310.691406 155.898438 L 207.03125 318.617188 L 50.820312 219.101562 Z M 154.480469 56.382812 " clip-rule="nonzero"/></clipPath><clipPath id="160cd92e10"><path d="M 154.480469 56.382812 L 310.691406 155.898438 L 207.03125 318.617188 L 50.820312 219.101562 Z M 154.480469 56.382812 " clip-rule="nonzero"/></clipPath><clipPath id="015d0037f5"><path d="M 154.480469 56.382812 L 310.691406 155.898438 L 207.03125 318.617188 L 50.820312 219.101562 Z M 154.480469 56.382812 " clip-rule="nonzero"/></clipPath><clipPath id="b81a6f9979"><path d="M 199 111 L 202 111 L 202 113 L 199 113 Z M 199 111 " clip-rule="nonzero"/></clipPath><clipPath id="fa8e2d0e49"><path d="M 154.480469 56.382812 L 310.691406 155.898438 L 207.03125 318.617188 L 50.820312 219.101562 Z M 154.480469 56.382812 " clip-rule="nonzero"/></clipPath><clipPath id="9ecac0cefe"><path d="M 154.480469 56.382812 L 310.691406 155.898438 L 207.03125 318.617188 L 50.820312 219.101562 Z M 154.480469 56.382812 " clip-rule="nonzero"/></clipPath><clipPath id="68137c54b9"><path d="M 154.480469 56.382812 L 310.691406 155.898438 L 207.03125 318.617188 L 50.820312 219.101562 Z M 154.480469 56.382812 " clip-rule="nonzero"/></clipPath><clipPath id="f3901a81d2"><path d="M 207 108 L 210 108 L 210 111 L 207 111 Z M 207 108 " clip-rule="nonzero"/></clipPath><clipPath id="33f2c3e38c"><path d="M 154.480469 56.382812 L 310.691406 155.898438 L 207.03125 318.617188 L 50.820312 219.101562 Z M 154.480469 56.382812 " clip-rule="nonzero"/></clipPath><clipPath id="bf8a6916d8"><path d="M 154.480469 56.382812 L 310.691406 155.898438 L 207.03125 318.617188 L 50.820312 219.101562 Z M 154.480469 56.382812 " clip-rule="nonzero"/></clipPath><clipPath id="6e955b1484"><path d="M 154.480469 56.382812 L 310.691406 155.898438 L 207.03125 318.617188 L 50.820312 219.101562 Z M 154.480469 56.382812 " clip-rule="nonzero"/></clipPath><clipPath id="0c193a11f6"><path d="M 75 212 L 104 212 L 104 238 L 75 238 Z M 75 212 " clip-rule="nonzero"/></clipPath><clipPath id="ae34b7b73e"><path d="M 154.480469 56.382812 L 310.691406 155.898438 L 207.03125 318.617188 L 50.820312 219.101562 Z M 154.480469 56.382812 " clip-rule="nonzero"/></clipPath><clipPath id="899af7b013"><path d="M 154.480469 56.382812 L 310.691406 155.898438 L 207.03125 318.617188 L 50.820312 219.101562 Z M 154.480469 56.382812 " clip-rule="nonzero"/></clipPath><clipPath id="4b9ba0f5be"><path d="M 154.480469 56.382812 L 310.691406 155.898438 L 207.03125 318.617188 L 50.820312 219.101562 Z M 154.480469 56.382812 " clip-rule="nonzero"/></clipPath><clipPath id="a60a35c97c"><path d="M 76 213 L 102 213 L 102 237 L 76 237 Z M 76 213 " clip-rule="nonzero"/></clipPath><clipPath id="15360796da"><path d="M 154.480469 56.382812 L 310.691406 155.898438 L 207.03125 318.617188 L 50.820312 219.101562 Z M 154.480469 56.382812 " clip-rule="nonzero"/></clipPath><clipPath id="dd19b09b16"><path d="M 154.480469 56.382812 L 310.691406 155.898438 L 207.03125 318.617188 L 50.820312 219.101562 Z M 154.480469 56.382812 " clip-rule="nonzero"/></clipPath><clipPath id="4aa05980aa"><path d="M 154.480469 56.382812 L 310.691406 155.898438 L 207.03125 318.617188 L 50.820312 219.101562 Z M 154.480469 56.382812 " clip-rule="nonzero"/></clipPath><clipPath id="ef474a03a3"><path d="M 53 202 L 86 202 L 86 234 L 53 234 Z M 53 202 " clip-rule="nonzero"/></clipPath><clipPath id="94ecbf9081"><path d="M 154.480469 56.382812 L 310.691406 155.898438 L 207.03125 318.617188 L 50.820312 219.101562 Z M 154.480469 56.382812 " clip-rule="nonzero"/></clipPath><clipPath id="fa01bfa5aa"><path d="M 154.480469 56.382812 L 310.691406 155.898438 L 207.03125 318.617188 L 50.820312 219.101562 Z M 154.480469 56.382812 " clip-rule="nonzero"/></clipPath><clipPath id="19cca2222f"><path d="M 154.480469 56.382812 L 310.691406 155.898438 L 207.03125 318.617188 L 50.820312 219.101562 Z M 154.480469 56.382812 " clip-rule="nonzero"/></clipPath><clipPath id="1e9024d738"><path d="M 55 203 L 85 203 L 85 232 L 55 232 Z M 55 203 " clip-rule="nonzero"/></clipPath><clipPath id="ac13bdc29b"><path d="M 154.480469 56.382812 L 310.691406 155.898438 L 207.03125 318.617188 L 50.820312 219.101562 Z M 154.480469 56.382812 " clip-rule="nonzero"/></clipPath><clipPath id="590006aa69"><path d="M 154.480469 56.382812 L 310.691406 155.898438 L 207.03125 318.617188 L 50.820312 219.101562 Z M 154.480469 56.382812 " clip-rule="nonzero"/></clipPath><clipPath id="7e8f4687de"><path d="M 154.480469 56.382812 L 310.691406 155.898438 L 207.03125 318.617188 L 50.820312 219.101562 Z M 154.480469 56.382812 " clip-rule="nonzero"/></clipPath><clipPath id="18724c3ddf"><path d="M 92 206 L 122 206 L 122 227 L 92 227 Z M 92 206 " clip-rule="nonzero"/></clipPath><clipPath id="0be05a8abb"><path d="M 154.480469 56.382812 L 310.691406 155.898438 L 207.03125 318.617188 L 50.820312 219.101562 Z M 154.480469 56.382812 " clip-rule="nonzero"/></clipPath><clipPath id="f005cb8674"><path d="M 154.480469 56.382812 L 310.691406 155.898438 L 207.03125 318.617188 L 50.820312 219.101562 Z M 154.480469 56.382812 " clip-rule="nonzero"/></clipPath><clipPath id="165674eca5"><path d="M 154.480469 56.382812 L 310.691406 155.898438 L 207.03125 318.617188 L 50.820312 219.101562 Z M 154.480469 56.382812 " clip-rule="nonzero"/></clipPath><clipPath id="018bdf662d"><path d="M 93 207 L 121 207 L 121 226 L 93 226 Z M 93 207 " clip-rule="nonzero"/></clipPath><clipPath id="a942509ca8"><path d="M 154.480469 56.382812 L 310.691406 155.898438 L 207.03125 318.617188 L 50.820312 219.101562 Z M 154.480469 56.382812 " clip-rule="nonzero"/></clipPath><clipPath id="935d62118e"><path d="M 154.480469 56.382812 L 310.691406 155.898438 L 207.03125 318.617188 L 50.820312 219.101562 Z M 154.480469 56.382812 " clip-rule="nonzero"/></clipPath><clipPath id="e3a0329f39"><path d="M 154.480469 56.382812 L 310.691406 155.898438 L 207.03125 318.617188 L 50.820312 219.101562 Z M 154.480469 56.382812 " clip-rule="nonzero"/></clipPath><clipPath id="a91a4be479"><path d="M 114 216 L 145 216 L 145 248 L 114 248 Z M 114 216 " clip-rule="nonzero"/></clipPath><clipPath id="a498109fc9"><path d="M 154.480469 56.382812 L 310.691406 155.898438 L 207.03125 318.617188 L 50.820312 219.101562 Z M 154.480469 56.382812 " clip-rule="nonzero"/></clipPath><clipPath id="91b06c246d"><path d="M 154.480469 56.382812 L 310.691406 155.898438 L 207.03125 318.617188 L 50.820312 219.101562 Z M 154.480469 56.382812 " clip-rule="nonzero"/></clipPath><clipPath id="85a78f45f3"><path d="M 154.480469 56.382812 L 310.691406 155.898438 L 207.03125 318.617188 L 50.820312 219.101562 Z M 154.480469 56.382812 " clip-rule="nonzero"/></clipPath><clipPath id="f8707a2533"><path d="M 116 217 L 144 217 L 144 247 L 116 247 Z M 116 217 " clip-rule="nonzero"/></clipPath><clipPath id="6ed9877724"><path d="M 154.480469 56.382812 L 310.691406 155.898438 L 207.03125 318.617188 L 50.820312 219.101562 Z M 154.480469 56.382812 " clip-rule="nonzero"/></clipPath><clipPath id="9741c2d106"><path d="M 154.480469 56.382812 L 310.691406 155.898438 L 207.03125 318.617188 L 50.820312 219.101562 Z M 154.480469 56.382812 " clip-rule="nonzero"/></clipPath><clipPath id="53288a1316"><path d="M 154.480469 56.382812 L 310.691406 155.898438 L 207.03125 318.617188 L 50.820312 219.101562 Z M 154.480469 56.382812 " clip-rule="nonzero"/></clipPath><clipPath id="37c5bfcc2b"><path d="M 140 211 L 170 211 L 170 232 L 140 232 Z M 140 211 " clip-rule="nonzero"/></clipPath><clipPath id="35d4a4c8c6"><path d="M 154.480469 56.382812 L 310.691406 155.898438 L 207.03125 318.617188 L 50.820312 219.101562 Z M 154.480469 56.382812 " clip-rule="nonzero"/></clipPath><clipPath id="7b318b7905"><path d="M 154.480469 56.382812 L 310.691406 155.898438 L 207.03125 318.617188 L 50.820312 219.101562 Z M 154.480469 56.382812 " clip-rule="nonzero"/></clipPath><clipPath id="5df070e440"><path d="M 154.480469 56.382812 L 310.691406 155.898438 L 207.03125 318.617188 L 50.820312 219.101562 Z M 154.480469 56.382812 " clip-rule="nonzero"/></clipPath><clipPath id="a89f12601b"><path d="M 141 212 L 169 212 L 169 231 L 141 231 Z M 141 212 " clip-rule="nonzero"/></clipPath><clipPath id="7360b7cc30"><path d="M 154.480469 56.382812 L 310.691406 155.898438 L 207.03125 318.617188 L 50.820312 219.101562 Z M 154.480469 56.382812 " clip-rule="nonzero"/></clipPath><clipPath id="66ee6b0926"><path d="M 154.480469 56.382812 L 310.691406 155.898438 L 207.03125 318.617188 L 50.820312 219.101562 Z M 154.480469 56.382812 " clip-rule="nonzero"/></clipPath><clipPath id="d16217bd31"><path d="M 154.480469 56.382812 L 310.691406 155.898438 L 207.03125 318.617188 L 50.820312 219.101562 Z M 154.480469 56.382812 " clip-rule="nonzero"/></clipPath><clipPath id="93c7f6b1f2"><path d="M 249 103 L 309 103 L 309 141 L 249 141 Z M 249 103 " clip-rule="nonzero"/></clipPath><clipPath id="586ecd58b8"><path d="M 241.347656 106.335938 L 306.121094 87.253906 L 323.839844 147.402344 L 259.066406 166.480469 Z M 241.347656 106.335938 " clip-rule="nonzero"/></clipPath><clipPath id="0373e5f7db"><path d="M 241.347656 106.335938 L 306.121094 87.253906 L 323.839844 147.402344 L 259.066406 166.480469 Z M 241.347656 106.335938 " clip-rule="nonzero"/></clipPath><clipPath id="b0d4b495b2"><path d="M 241.347656 106.335938 L 306.121094 87.253906 L 323.839844 147.402344 L 259.066406 166.480469 Z M 241.347656 106.335938 " clip-rule="nonzero"/></clipPath><clipPath id="80390e5091"><path d="M 247 104 L 292 104 L 292 158 L 247 158 Z M 247 104 " clip-rule="nonzero"/></clipPath><clipPath id="db1f254222"><path d="M 241.347656 106.335938 L 306.121094 87.253906 L 323.839844 147.402344 L 259.066406 166.480469 Z M 241.347656 106.335938 " clip-rule="nonzero"/></clipPath><clipPath id="672451b761"><path d="M 241.347656 106.335938 L 306.121094 87.253906 L 323.839844 147.402344 L 259.066406 166.480469 Z M 241.347656 106.335938 " clip-rule="nonzero"/></clipPath><clipPath id="d6afab515c"><path d="M 241.347656 106.335938 L 306.121094 87.253906 L 323.839844 147.402344 L 259.066406 166.480469 Z M 241.347656 106.335938 " clip-rule="nonzero"/></clipPath><clipPath id="7677f7c15f"><path d="M 250 107 L 289 107 L 289 155 L 250 155 Z M 250 107 " clip-rule="nonzero"/></clipPath><clipPath id="fe34596fb9"><path d="M 241.347656 106.335938 L 306.121094 87.253906 L 323.839844 147.402344 L 259.066406 166.480469 Z M 241.347656 106.335938 " clip-rule="nonzero"/></clipPath><clipPath id="697403aa51"><path d="M 241.347656 106.335938 L 306.121094 87.253906 L 323.839844 147.402344 L 259.066406 166.480469 Z M 241.347656 106.335938 " clip-rule="nonzero"/></clipPath><clipPath id="23dabbff18"><path d="M 241.347656 106.335938 L 306.121094 87.253906 L 323.839844 147.402344 L 259.066406 166.480469 Z M 241.347656 106.335938 " clip-rule="nonzero"/></clipPath><clipPath id="6491d3c9d8"><path d="M 262 124 L 276 124 L 276 138 L 262 138 Z M 262 124 " clip-rule="nonzero"/></clipPath><clipPath id="f9993fe96d"><path d="M 241.347656 106.335938 L 306.121094 87.253906 L 323.839844 147.402344 L 259.066406 166.480469 Z M 241.347656 106.335938 " clip-rule="nonzero"/></clipPath><clipPath id="fd650641f2"><path d="M 241.347656 106.335938 L 306.121094 87.253906 L 323.839844 147.402344 L 259.066406 166.480469 Z M 241.347656 106.335938 " clip-rule="nonzero"/></clipPath><clipPath id="2bb2b743d1"><path d="M 241.347656 106.335938 L 306.121094 87.253906 L 323.839844 147.402344 L 259.066406 166.480469 Z M 241.347656 106.335938 " clip-rule="nonzero"/></clipPath><clipPath id="76c4f1d448"><path d="M 269 149 L 277 149 L 277 155 L 269 155 Z M 269 149 " clip-rule="nonzero"/></clipPath><clipPath id="fecc808f8a"><path d="M 241.347656 106.335938 L 306.121094 87.253906 L 323.839844 147.402344 L 259.066406 166.480469 Z M 241.347656 106.335938 " clip-rule="nonzero"/></clipPath><clipPath id="f6708c2afa"><path d="M 241.347656 106.335938 L 306.121094 87.253906 L 323.839844 147.402344 L 259.066406 166.480469 Z M 241.347656 106.335938 " clip-rule="nonzero"/></clipPath><clipPath id="fe8de23a29"><path d="M 241.347656 106.335938 L 306.121094 87.253906 L 323.839844 147.402344 L 259.066406 166.480469 Z M 241.347656 106.335938 " clip-rule="nonzero"/></clipPath><clipPath id="9a18154b2a"><path d="M 283 140 L 289 140 L 289 149 L 283 149 Z M 283 140 " clip-rule="nonzero"/></clipPath><clipPath id="923cf68f7b"><path d="M 241.347656 106.335938 L 306.121094 87.253906 L 323.839844 147.402344 L 259.066406 166.480469 Z M 241.347656 106.335938 " clip-rule="nonzero"/></clipPath><clipPath id="54f7b07e4e"><path d="M 241.347656 106.335938 L 306.121094 87.253906 L 323.839844 147.402344 L 259.066406 166.480469 Z M 241.347656 106.335938 " clip-rule="nonzero"/></clipPath><clipPath id="faa7ace211"><path d="M 241.347656 106.335938 L 306.121094 87.253906 L 323.839844 147.402344 L 259.066406 166.480469 Z M 241.347656 106.335938 " clip-rule="nonzero"/></clipPath><clipPath id="2d1071038a"><path d="M 250 114 L 256 114 L 256 122 L 250 122 Z M 250 114 " clip-rule="nonzero"/></clipPath><clipPath id="45bfa473a9"><path d="M 241.347656 106.335938 L 306.121094 87.253906 L 323.839844 147.402344 L 259.066406 166.480469 Z M 241.347656 106.335938 " clip-rule="nonzero"/></clipPath><clipPath id="98a047a56f"><path d="M 241.347656 106.335938 L 306.121094 87.253906 L 323.839844 147.402344 L 259.066406 166.480469 Z M 241.347656 106.335938 " clip-rule="nonzero"/></clipPath><clipPath id="3a0f41b44d"><path d="M 241.347656 106.335938 L 306.121094 87.253906 L 323.839844 147.402344 L 259.066406 166.480469 Z M 241.347656 106.335938 " clip-rule="nonzero"/></clipPath><clipPath id="8bc4d778d7"><path d="M 261 107 L 269 107 L 269 113 L 261 113 Z M 261 107 " clip-rule="nonzero"/></clipPath><clipPath id="5732bd4b31"><path d="M 241.347656 106.335938 L 306.121094 87.253906 L 323.839844 147.402344 L 259.066406 166.480469 Z M 241.347656 106.335938 " clip-rule="nonzero"/></clipPath><clipPath id="8ed40afe5a"><path d="M 241.347656 106.335938 L 306.121094 87.253906 L 323.839844 147.402344 L 259.066406 166.480469 Z M 241.347656 106.335938 " clip-rule="nonzero"/></clipPath><clipPath id="dc8bd8a4a0"><path d="M 241.347656 106.335938 L 306.121094 87.253906 L 323.839844 147.402344 L 259.066406 166.480469 Z M 241.347656 106.335938 " clip-rule="nonzero"/></clipPath><clipPath id="cf9014fded"><path d="M 265 97 L 292 97 L 292 149 L 265 149 Z M 265 97 " clip-rule="nonzero"/></clipPath><clipPath id="c7b7dbea76"><path d="M 241.347656 106.335938 L 306.121094 87.253906 L 323.839844 147.402344 L 259.066406 166.480469 Z M 241.347656 106.335938 " clip-rule="nonzero"/></clipPath><clipPath id="389718b101"><path d="M 241.347656 106.335938 L 306.121094 87.253906 L 323.839844 147.402344 L 259.066406 166.480469 Z M 241.347656 106.335938 " clip-rule="nonzero"/></clipPath><clipPath id="5ccc9b1c12"><path d="M 241.347656 106.335938 L 306.121094 87.253906 L 323.839844 147.402344 L 259.066406 166.480469 Z M 241.347656 106.335938 " clip-rule="nonzero"/></clipPath><clipPath id="27c32a65bd"><path d="M 267 100 L 290 100 L 290 146 L 267 146 Z M 267 100 " clip-rule="nonzero"/></clipPath><clipPath id="39458801a1"><path d="M 241.347656 106.335938 L 306.121094 87.253906 L 323.839844 147.402344 L 259.066406 166.480469 Z M 241.347656 106.335938 " clip-rule="nonzero"/></clipPath><clipPath id="23baa9e495"><path d="M 241.347656 106.335938 L 306.121094 87.253906 L 323.839844 147.402344 L 259.066406 166.480469 Z M 241.347656 106.335938 " clip-rule="nonzero"/></clipPath><clipPath id="9d829b0141"><path d="M 241.347656 106.335938 L 306.121094 87.253906 L 323.839844 147.402344 L 259.066406 166.480469 Z M 241.347656 106.335938 " clip-rule="nonzero"/></clipPath><clipPath id="7cf25d28fd"><path d="M 272 116 L 285 116 L 285 130 L 272 130 Z M 272 116 " clip-rule="nonzero"/></clipPath><clipPath id="fdcf67cc33"><path d="M 241.347656 106.335938 L 306.121094 87.253906 L 323.839844 147.402344 L 259.066406 166.480469 Z M 241.347656 106.335938 " clip-rule="nonzero"/></clipPath><clipPath id="065f6aebc4"><path d="M 241.347656 106.335938 L 306.121094 87.253906 L 323.839844 147.402344 L 259.066406 166.480469 Z M 241.347656 106.335938 " clip-rule="nonzero"/></clipPath><clipPath id="9655b3bfca"><path d="M 241.347656 106.335938 L 306.121094 87.253906 L 323.839844 147.402344 L 259.066406 166.480469 Z M 241.347656 106.335938 " clip-rule="nonzero"/></clipPath><clipPath id="e89878cf2a"><path d="M 270 140 L 276 140 L 276 146 L 270 146 Z M 270 140 " clip-rule="nonzero"/></clipPath><clipPath id="a1de8f4031"><path d="M 241.347656 106.335938 L 306.121094 87.253906 L 323.839844 147.402344 L 259.066406 166.480469 Z M 241.347656 106.335938 " clip-rule="nonzero"/></clipPath><clipPath id="361b9cfe3f"><path d="M 241.347656 106.335938 L 306.121094 87.253906 L 323.839844 147.402344 L 259.066406 166.480469 Z M 241.347656 106.335938 " clip-rule="nonzero"/></clipPath><clipPath id="824eb19824"><path d="M 241.347656 106.335938 L 306.121094 87.253906 L 323.839844 147.402344 L 259.066406 166.480469 Z M 241.347656 106.335938 " clip-rule="nonzero"/></clipPath><clipPath id="21ddd59adf"><path d="M 283 139 L 290 139 L 290 145 L 283 145 Z M 283 139 " clip-rule="nonzero"/></clipPath><clipPath id="1fcf715e6c"><path d="M 241.347656 106.335938 L 306.121094 87.253906 L 323.839844 147.402344 L 259.066406 166.480469 Z M 241.347656 106.335938 " clip-rule="nonzero"/></clipPath><clipPath id="b1ad1b4f30"><path d="M 241.347656 106.335938 L 306.121094 87.253906 L 323.839844 147.402344 L 259.066406 166.480469 Z M 241.347656 106.335938 " clip-rule="nonzero"/></clipPath><clipPath id="60533e945d"><path d="M 241.347656 106.335938 L 306.121094 87.253906 L 323.839844 147.402344 L 259.066406 166.480469 Z M 241.347656 106.335938 " clip-rule="nonzero"/></clipPath><clipPath id="ebc4009341"><path d="M 267 101 L 273 101 L 273 107 L 267 107 Z M 267 101 " clip-rule="nonzero"/></clipPath><clipPath id="7e85baa97f"><path d="M 241.347656 106.335938 L 306.121094 87.253906 L 323.839844 147.402344 L 259.066406 166.480469 Z M 241.347656 106.335938 " clip-rule="nonzero"/></clipPath><clipPath id="67a920711c"><path d="M 241.347656 106.335938 L 306.121094 87.253906 L 323.839844 147.402344 L 259.066406 166.480469 Z M 241.347656 106.335938 " clip-rule="nonzero"/></clipPath><clipPath id="f55c2c3808"><path d="M 241.347656 106.335938 L 306.121094 87.253906 L 323.839844 147.402344 L 259.066406 166.480469 Z M 241.347656 106.335938 " clip-rule="nonzero"/></clipPath><clipPath id="a3cd1a219d"><path d="M 280 100 L 287 100 L 287 106 L 280 106 Z M 280 100 " clip-rule="nonzero"/></clipPath><clipPath id="01923b1582"><path d="M 241.347656 106.335938 L 306.121094 87.253906 L 323.839844 147.402344 L 259.066406 166.480469 Z M 241.347656 106.335938 " clip-rule="nonzero"/></clipPath><clipPath id="09281a9fec"><path d="M 241.347656 106.335938 L 306.121094 87.253906 L 323.839844 147.402344 L 259.066406 166.480469 Z M 241.347656 106.335938 " clip-rule="nonzero"/></clipPath><clipPath id="e962a4b50c"><path d="M 241.347656 106.335938 L 306.121094 87.253906 L 323.839844 147.402344 L 259.066406 166.480469 Z M 241.347656 106.335938 " clip-rule="nonzero"/></clipPath><clipPath id="cca3c79ef7"><path d="M 270 92 L 311 92 L 311 147 L 270 147 Z M 270 92 " clip-rule="nonzero"/></clipPath><clipPath id="01ffc6b83a"><path d="M 241.347656 106.335938 L 306.121094 87.253906 L 323.839844 147.402344 L 259.066406 166.480469 Z M 241.347656 106.335938 " clip-rule="nonzero"/></clipPath><clipPath id="62cfa188a4"><path d="M 241.347656 106.335938 L 306.121094 87.253906 L 323.839844 147.402344 L 259.066406 166.480469 Z M 241.347656 106.335938 " clip-rule="nonzero"/></clipPath><clipPath id="fc2fa7fb4c"><path d="M 241.347656 106.335938 L 306.121094 87.253906 L 323.839844 147.402344 L 259.066406 166.480469 Z M 241.347656 106.335938 " clip-rule="nonzero"/></clipPath><clipPath id="5b6d13402a"><path d="M 273 95 L 308 95 L 308 144 L 273 144 Z M 273 95 " clip-rule="nonzero"/></clipPath><clipPath id="7b34db5722"><path d="M 241.347656 106.335938 L 306.121094 87.253906 L 323.839844 147.402344 L 259.066406 166.480469 Z M 241.347656 106.335938 " clip-rule="nonzero"/></clipPath><clipPath id="a910524ba2"><path d="M 241.347656 106.335938 L 306.121094 87.253906 L 323.839844 147.402344 L 259.066406 166.480469 Z M 241.347656 106.335938 " clip-rule="nonzero"/></clipPath><clipPath id="51cf630e72"><path d="M 241.347656 106.335938 L 306.121094 87.253906 L 323.839844 147.402344 L 259.066406 166.480469 Z M 241.347656 106.335938 " clip-rule="nonzero"/></clipPath><clipPath id="a9d1eedff2"><path d="M 284 113 L 297 113 L 297 127 L 284 127 Z M 284 113 " clip-rule="nonzero"/></clipPath><clipPath id="7a040062a2"><path d="M 241.347656 106.335938 L 306.121094 87.253906 L 323.839844 147.402344 L 259.066406 166.480469 Z M 241.347656 106.335938 " clip-rule="nonzero"/></clipPath><clipPath id="07a20bff72"><path d="M 241.347656 106.335938 L 306.121094 87.253906 L 323.839844 147.402344 L 259.066406 166.480469 Z M 241.347656 106.335938 " clip-rule="nonzero"/></clipPath><clipPath id="c8fe6af288"><path d="M 241.347656 106.335938 L 306.121094 87.253906 L 323.839844 147.402344 L 259.066406 166.480469 Z M 241.347656 106.335938 " clip-rule="nonzero"/></clipPath><clipPath id="75b81d9711"><path d="M 273 131 L 279 131 L 279 139 L 273 139 Z M 273 131 " clip-rule="nonzero"/></clipPath><clipPath id="c959a6cf29"><path d="M 241.347656 106.335938 L 306.121094 87.253906 L 323.839844 147.402344 L 259.066406 166.480469 Z M 241.347656 106.335938 " clip-rule="nonzero"/></clipPath><clipPath id="64db7a2bcc"><path d="M 241.347656 106.335938 L 306.121094 87.253906 L 323.839844 147.402344 L 259.066406 166.480469 Z M 241.347656 106.335938 " clip-rule="nonzero"/></clipPath><clipPath id="91244aa1b1"><path d="M 241.347656 106.335938 L 306.121094 87.253906 L 323.839844 147.402344 L 259.066406 166.480469 Z M 241.347656 106.335938 " clip-rule="nonzero"/></clipPath><clipPath id="e23c4a9e3a"><path d="M 285 138 L 293 138 L 293 144 L 285 144 Z M 285 138 " clip-rule="nonzero"/></clipPath><clipPath id="1a1a258317"><path d="M 241.347656 106.335938 L 306.121094 87.253906 L 323.839844 147.402344 L 259.066406 166.480469 Z M 241.347656 106.335938 " clip-rule="nonzero"/></clipPath><clipPath id="17fb05e16c"><path d="M 241.347656 106.335938 L 306.121094 87.253906 L 323.839844 147.402344 L 259.066406 166.480469 Z M 241.347656 106.335938 " clip-rule="nonzero"/></clipPath><clipPath id="0119f25681"><path d="M 241.347656 106.335938 L 306.121094 87.253906 L 323.839844 147.402344 L 259.066406 166.480469 Z M 241.347656 106.335938 " clip-rule="nonzero"/></clipPath><clipPath id="f71faee8a2"><path d="M 288 95 L 296 95 L 296 101 L 288 101 Z M 288 95 " clip-rule="nonzero"/></clipPath><clipPath id="27c62ccfff"><path d="M 241.347656 106.335938 L 306.121094 87.253906 L 323.839844 147.402344 L 259.066406 166.480469 Z M 241.347656 106.335938 " clip-rule="nonzero"/></clipPath><clipPath id="82969d0da8"><path d="M 241.347656 106.335938 L 306.121094 87.253906 L 323.839844 147.402344 L 259.066406 166.480469 Z M 241.347656 106.335938 " clip-rule="nonzero"/></clipPath><clipPath id="269a3f5414"><path d="M 241.347656 106.335938 L 306.121094 87.253906 L 323.839844 147.402344 L 259.066406 166.480469 Z M 241.347656 106.335938 " clip-rule="nonzero"/></clipPath><clipPath id="6bfb5503ac"><path d="M 302 101 L 308 101 L 308 108 L 302 108 Z M 302 101 " clip-rule="nonzero"/></clipPath><clipPath id="d760b72b6d"><path d="M 241.347656 106.335938 L 306.121094 87.253906 L 323.839844 147.402344 L 259.066406 166.480469 Z M 241.347656 106.335938 " clip-rule="nonzero"/></clipPath><clipPath id="7df1540454"><path d="M 241.347656 106.335938 L 306.121094 87.253906 L 323.839844 147.402344 L 259.066406 166.480469 Z M 241.347656 106.335938 " clip-rule="nonzero"/></clipPath><clipPath id="c0076b41df"><path d="M 241.347656 106.335938 L 306.121094 87.253906 L 323.839844 147.402344 L 259.066406 166.480469 Z M 241.347656 106.335938 " clip-rule="nonzero"/></clipPath><clipPath id="9b93ce32c1"><path d="M 249 115 L 319 115 L 319 167 L 249 167 Z M 249 115 " clip-rule="nonzero"/></clipPath><clipPath id="4d755660ca"><path d="M 241.347656 106.335938 L 306.121094 87.253906 L 323.839844 147.402344 L 259.066406 166.480469 Z M 241.347656 106.335938 " clip-rule="nonzero"/></clipPath><clipPath id="b9e8679712"><path d="M 241.347656 106.335938 L 306.121094 87.253906 L 323.839844 147.402344 L 259.066406 166.480469 Z M 241.347656 106.335938 " clip-rule="nonzero"/></clipPath><clipPath id="8fb43411e8"><path d="M 241.347656 106.335938 L 306.121094 87.253906 L 323.839844 147.402344 L 259.066406 166.480469 Z M 241.347656 106.335938 " clip-rule="nonzero"/></clipPath><clipPath id="dcfa81282f"><path d="M 259 140 L 319 140 L 319 167 L 259 167 Z M 259 140 " clip-rule="nonzero"/></clipPath><clipPath id="81e47c57e9"><path d="M 241.347656 106.335938 L 306.121094 87.253906 L 323.839844 147.402344 L 259.066406 166.480469 Z M 241.347656 106.335938 " clip-rule="nonzero"/></clipPath><clipPath id="448da6145b"><path d="M 241.347656 106.335938 L 306.121094 87.253906 L 323.839844 147.402344 L 259.066406 166.480469 Z M 241.347656 106.335938 " clip-rule="nonzero"/></clipPath><clipPath id="6bbd64d008"><path d="M 241.347656 106.335938 L 306.121094 87.253906 L 323.839844 147.402344 L 259.066406 166.480469 Z M 241.347656 106.335938 " clip-rule="nonzero"/></clipPath></defs><g clip-path="url(#11081a6616)"><g clip-path="url(#a4403110d6)"><g clip-path="url(#b8bb4b085b)"><g clip-path="url(#00a2522179)"><path fill="#efc933" d="M 260.191406 214.8125 L 238.425781 219.394531 L 247.054688 240.734375 L 246.28125 242.257812 L 235.898438 219.929688 L 228.535156 221.480469 L 225.488281 214.519531 L 201.519531 219 L 202.289062 217.476562 L 224.4375 212.128906 L 215.429688 191.554688 L 216.199219 190.027344 L 230.855469 216.90625 L 260.960938 213.285156 Z M 215.375 187.671875 L 199.148438 219.691406 L 247.105469 244.613281 L 263.335938 212.59375 L 215.375 187.671875 " fill-opacity="1" fill-rule="nonzero"/></g></g></g></g><g clip-path="url(#d4ede4b75b)"><g clip-path="url(#d032d3b6bd)"><g clip-path="url(#c233710daa)"><g clip-path="url(#34260f43a3)"><path fill="#ffffff" d="M 260.191406 214.8125 L 238.425781 219.394531 L 247.054688 240.734375 L 246.28125 242.257812 L 235.898438 219.929688 L 228.535156 221.480469 L 225.488281 214.519531 L 201.519531 219 L 202.289062 217.476562 L 224.4375 212.128906 L 215.429688 191.554688 L 216.199219 190.027344 L 230.855469 216.90625 L 260.960938 213.285156 L 260.191406 214.8125 " fill-opacity="1" fill-rule="nonzero"/></g></g></g></g><g clip-path="url(#66c4c5846e)"><g clip-path="url(#50c3c0abb0)"><g clip-path="url(#f6d7b576ce)"><g clip-path="url(#650f8012ed)"><path fill="#ed5f2f" d="M 265.628906 211.984375 L 254.144531 206.164062 L 250.109375 218.0625 L 249.199219 218.421875 L 252.8125 205.488281 L 248.929688 203.519531 L 250.140625 199.554688 L 237.703125 192.910156 L 238.617188 192.554688 L 250.554688 198.191406 L 254.136719 186.472656 L 255.046875 186.113281 L 251.667969 202.449219 L 266.542969 211.625 Z M 255.550781 184.84375 L 236.378906 192.355469 L 248.695312 219.691406 L 267.867188 212.179688 L 255.550781 184.84375 " fill-opacity="1" fill-rule="nonzero"/></g></g></g></g><g clip-path="url(#f2002695f7)"><g clip-path="url(#4b586ebdf2)"><g clip-path="url(#9649533a0b)"><g clip-path="url(#5bb4243f79)"><path fill="#ffffff" d="M 265.628906 211.984375 L 254.144531 206.164062 L 250.109375 218.0625 L 249.199219 218.421875 L 252.8125 205.488281 L 248.929688 203.519531 L 250.140625 199.554688 L 237.703125 192.910156 L 238.617188 192.554688 L 250.554688 198.191406 L 254.136719 186.472656 L 255.046875 186.113281 L 251.667969 202.449219 L 266.542969 211.625 L 265.628906 211.984375 " fill-opacity="1" fill-rule="nonzero"/></g></g></g></g><g clip-path="url(#4a50a3ae82)"><g clip-path="url(#abad6d6ddc)"><g clip-path="url(#bfc2a2f485)"><g clip-path="url(#cf4cb13541)"><path fill="#ed5f2f" d="M 202.46875 124.222656 L 187.679688 134.050781 L 200.539062 148.027344 L 200.425781 149.425781 L 185.960938 135.191406 L 180.960938 138.515625 L 176.589844 134.027344 L 160.132812 144.410156 L 160.246094 143.011719 L 175.089844 132.484375 L 162.171875 119.207031 L 162.289062 117.804688 L 181.300781 134.316406 L 202.582031 122.824219 Z M 160.960938 116.226562 L 158.578125 145.632812 L 201.75 151.007812 L 204.136719 121.601562 L 160.960938 116.226562 " fill-opacity="1" fill-rule="nonzero"/></g></g></g></g><g clip-path="url(#8bc58d40ed)"><g clip-path="url(#9fd1afd37f)"><g clip-path="url(#fdc69f1e31)"><g clip-path="url(#1575aee7bf)"><path fill="#ffffff" d="M 202.46875 124.222656 L 187.679688 134.050781 L 200.539062 148.027344 L 200.425781 149.425781 L 185.960938 135.191406 L 180.960938 138.515625 L 176.589844 134.027344 L 160.132812 144.410156 L 160.246094 143.011719 L 175.089844 132.484375 L 162.171875 119.207031 L 162.289062 117.804688 L 181.300781 134.316406 L 202.582031 122.824219 L 202.46875 124.222656 " fill-opacity="1" fill-rule="nonzero"/></g></g></g></g><g clip-path="url(#d9378f5cf5)"><g clip-path="url(#73bef78557)"><g clip-path="url(#ab934bf010)"><g clip-path="url(#62e699e381)"><path fill="#148b89" d="M 159.71875 187.179688 L 150.34375 188.242188 L 153.109375 197.503906 L 152.71875 198.109375 L 149.253906 188.367188 L 146.082031 188.726562 L 145.082031 185.695312 L 134.78125 186.628906 L 135.171875 186.023438 L 144.738281 184.65625 L 141.777344 175.699219 L 142.167969 175.09375 L 147.25 186.90625 L 160.105469 186.570312 Z M 141.914062 174.074219 L 133.753906 186.828125 L 152.972656 199.128906 L 161.132812 186.375 L 141.914062 174.074219 " fill-opacity="1" fill-rule="nonzero"/></g></g></g></g><g clip-path="url(#ea87b7f8ca)"><g clip-path="url(#97953f746d)"><g clip-path="url(#fcb73c97dc)"><g clip-path="url(#c9c3bea75d)"><path fill="#ffffff" d="M 159.71875 187.179688 L 150.34375 188.242188 L 153.109375 197.503906 L 152.71875 198.109375 L 149.253906 188.367188 L 146.082031 188.726562 L 145.082031 185.695312 L 134.78125 186.628906 L 135.171875 186.023438 L 144.738281 184.65625 L 141.777344 175.699219 L 142.167969 175.09375 L 147.25 186.90625 L 160.105469 186.570312 L 159.71875 187.179688 " fill-opacity="1" fill-rule="nonzero"/></g></g></g></g><g clip-path="url(#4e05be445f)"><g clip-path="url(#e96adc0af4)"><g clip-path="url(#6c6b34c3c7)"><g clip-path="url(#5f2cd2e987)"><path fill="#148b89" d="M 213.339844 236.121094 L 194.699219 221.082031 L 182.316406 240.835938 L 180.492188 241.113281 L 192.527344 219.335938 L 186.222656 214.25 L 190.101562 207.613281 L 170.058594 190.710938 L 171.882812 190.433594 L 191.4375 205.332031 L 202.90625 185.71875 L 204.730469 185.441406 L 191.699219 213.417969 L 215.164062 235.84375 Z M 206.183594 183.363281 L 167.859375 189.1875 L 179.039062 243.191406 L 217.363281 237.367188 L 206.183594 183.363281 " fill-opacity="1" fill-rule="nonzero"/></g></g></g></g><g clip-path="url(#0f4739bd22)"><g clip-path="url(#01a05aa9a9)"><g clip-path="url(#d66742a22d)"><g clip-path="url(#a5f121b048)"><path fill="#ffffff" d="M 213.339844 236.121094 L 194.699219 221.082031 L 182.316406 240.835938 L 180.492188 241.113281 L 192.527344 219.335938 L 186.222656 214.25 L 190.101562 207.613281 L 170.058594 190.710938 L 171.882812 190.433594 L 191.4375 205.332031 L 202.90625 185.71875 L 204.730469 185.441406 L 191.699219 213.417969 L 215.164062 235.84375 L 213.339844 236.121094 " fill-opacity="1" fill-rule="nonzero"/></g></g></g></g><g clip-path="url(#e26a202578)"><g clip-path="url(#3fca735f1d)"><g clip-path="url(#c458a2cb7f)"><g clip-path="url(#9f7d4448b1)"><path fill="#148b89" d="M 261.375 152.628906 L 243.296875 162.027344 L 256.289062 179.316406 L 255.988281 180.886719 L 241.195312 163.117188 L 235.078125 166.296875 L 230.632812 160.714844 L 210.578125 170.550781 L 210.875 168.980469 L 229.105469 158.796875 L 215.960938 142.292969 L 216.261719 140.71875 L 235.976562 161.585938 L 261.671875 151.058594 Z M 214.941406 138.78125 L 208.65625 171.75 L 257.3125 182.824219 L 263.59375 149.859375 L 214.941406 138.78125 " fill-opacity="1" fill-rule="nonzero"/></g></g></g></g><g clip-path="url(#9270c7315c)"><g clip-path="url(#c70b7f015a)"><g clip-path="url(#7e02cd0677)"><g clip-path="url(#fcce5c8eae)"><path fill="#ffffff" d="M 261.375 152.628906 L 243.296875 162.027344 L 256.289062 179.316406 L 255.988281 180.886719 L 241.195312 163.117188 L 235.078125 166.296875 L 230.632812 160.714844 L 210.578125 170.550781 L 210.875 168.980469 L 229.105469 158.796875 L 215.960938 142.292969 L 216.261719 140.71875 L 235.976562 161.585938 L 261.671875 151.058594 L 261.375 152.628906 " fill-opacity="1" fill-rule="nonzero"/></g></g></g></g><g clip-path="url(#013a258ea6)"><g clip-path="url(#4c35dcc0dc)"><g clip-path="url(#f94c17e0fa)"><g clip-path="url(#58af066dc1)"><path fill="#efc933" d="M 179.105469 172.941406 L 173.21875 167.550781 L 168.640625 173.835938 L 168.027344 173.890625 L 172.535156 166.921875 L 170.542969 165.101562 L 171.988281 162.984375 L 165.675781 156.945312 L 166.292969 156.890625 L 172.488281 162.253906 L 176.757812 155.996094 L 177.371094 155.941406 L 172.390625 164.945312 L 179.71875 172.886719 Z M 177.902344 155.285156 L 164.976562 156.394531 L 167.496094 174.546875 L 180.417969 173.4375 L 177.902344 155.285156 " fill-opacity="1" fill-rule="nonzero"/></g></g></g></g><g clip-path="url(#432b6eeb42)"><g clip-path="url(#049137a1bd)"><g clip-path="url(#54fbe6f668)"><g clip-path="url(#ccd9b129a9)"><path fill="#ffffff" d="M 179.105469 172.941406 L 173.21875 167.550781 L 168.640625 173.835938 L 168.027344 173.890625 L 172.535156 166.921875 L 170.542969 165.101562 L 171.988281 162.984375 L 165.675781 156.945312 L 166.292969 156.890625 L 172.488281 162.253906 L 176.757812 155.996094 L 177.371094 155.941406 L 172.390625 164.945312 L 179.71875 172.886719 L 179.105469 172.941406 " fill-opacity="1" fill-rule="nonzero"/></g></g></g></g><g clip-path="url(#fc6abfb3ad)"><g clip-path="url(#bec8f9ad19)"><g clip-path="url(#75c537ba0d)"><g clip-path="url(#6642e3a5bf)"><path fill="#efc933" d="M 240.429688 130.972656 L 232.492188 124.835938 L 227.496094 133.226562 L 226.738281 133.359375 L 231.570312 124.125 L 228.886719 122.046875 L 230.445312 119.234375 L 221.90625 112.328125 L 222.664062 112.195312 L 230.984375 118.265625 L 235.597656 109.945312 L 236.355469 109.8125 L 231.167969 121.648438 L 241.1875 130.839844 Z M 236.945312 108.925781 L 220.972656 111.710938 L 226.148438 134.242188 L 242.121094 131.457031 L 236.945312 108.925781 " fill-opacity="1" fill-rule="nonzero"/></g></g></g></g><g clip-path="url(#c7d53dbf20)"><g clip-path="url(#eeb22cb476)"><g clip-path="url(#38b694d9eb)"><g clip-path="url(#9d50806734)"><path fill="#ffffff" d="M 240.429688 130.972656 L 232.492188 124.835938 L 227.496094 133.226562 L 226.738281 133.359375 L 231.570312 124.125 L 228.886719 122.046875 L 230.445312 119.234375 L 221.90625 112.328125 L 222.664062 112.195312 L 230.984375 118.265625 L 235.597656 109.945312 L 236.355469 109.8125 L 231.167969 121.648438 L 241.1875 130.839844 L 240.429688 130.972656 " fill-opacity="1" fill-rule="nonzero"/></g></g></g></g><g clip-path="url(#c2d63c10f7)"><g clip-path="url(#195f13c568)"><g clip-path="url(#3f21c7dc8e)"><g clip-path="url(#3be4cb435e)"><path fill="#efc933" d="M 222.242188 267.378906 L 210.722656 258.472656 L 203.476562 270.648438 L 202.371094 270.839844 L 209.382812 257.4375 L 205.488281 254.421875 L 207.753906 250.339844 L 195.359375 240.316406 L 196.464844 240.125 L 208.53125 248.933594 L 215.230469 236.855469 L 216.332031 236.664062 L 208.800781 253.847656 L 223.34375 267.183594 Z M 217.1875 235.378906 L 194.003906 239.417969 L 201.519531 272.121094 L 224.699219 268.082031 L 217.1875 235.378906 " fill-opacity="1" fill-rule="nonzero"/></g></g></g></g><g clip-path="url(#ad19e0af25)"><g clip-path="url(#b10facae0d)"><g clip-path="url(#d8f6292a29)"><g clip-path="url(#2fc0e555b4)"><path fill="#ffffff" d="M 222.242188 267.378906 L 210.722656 258.472656 L 203.476562 270.648438 L 202.371094 270.839844 L 209.382812 257.4375 L 205.488281 254.421875 L 207.753906 250.339844 L 195.359375 240.316406 L 196.464844 240.125 L 208.53125 248.933594 L 215.230469 236.855469 L 216.332031 236.664062 L 208.800781 253.847656 L 223.34375 267.183594 L 222.242188 267.378906 " fill-opacity="1" fill-rule="nonzero"/></g></g></g></g><g clip-path="url(#1a54c7e103)"><g clip-path="url(#929e3c31eb)"><g clip-path="url(#8926871217)"><g clip-path="url(#5f14c3cd31)"><path fill="#d52839" d="M 224.945312 185.738281 L 208.902344 187.558594 L 213.632812 203.410156 L 212.96875 204.449219 L 207.035156 187.769531 L 201.609375 188.386719 L 199.898438 183.199219 L 182.265625 184.796875 L 182.933594 183.757812 L 199.308594 181.417969 L 194.242188 166.085938 L 194.90625 165.046875 L 203.605469 185.265625 L 225.609375 184.699219 Z M 194.476562 163.304688 L 180.503906 185.132812 L 213.402344 206.191406 L 227.375 184.363281 L 194.476562 163.304688 " fill-opacity="1" fill-rule="nonzero"/></g></g></g></g><g clip-path="url(#b08891d0b5)"><g clip-path="url(#964e78759b)"><g clip-path="url(#65b5b585c4)"><g clip-path="url(#0c8da9860e)"><path fill="#ffffff" d="M 224.945312 185.738281 L 208.902344 187.558594 L 213.632812 203.410156 L 212.96875 204.449219 L 207.035156 187.769531 L 201.609375 188.386719 L 199.898438 183.199219 L 182.265625 184.796875 L 182.933594 183.757812 L 199.308594 181.417969 L 194.242188 166.085938 L 194.90625 165.046875 L 203.605469 185.265625 L 225.609375 184.699219 L 224.945312 185.738281 " fill-opacity="1" fill-rule="nonzero"/></g></g></g></g><g clip-path="url(#d860fea61f)"><g clip-path="url(#8c8272de04)"><g clip-path="url(#b427c2403d)"><g clip-path="url(#db54ddf27d)"><path fill="#d52839" d="M 181.761719 264.167969 L 168.503906 262.429688 L 169.035156 275.78125 L 168.285156 276.464844 L 166.960938 262.226562 L 162.476562 261.640625 L 162.171875 257.238281 L 147.683594 255.011719 L 148.433594 254.328125 L 162.066406 255.726562 L 161.160156 242.714844 L 161.910156 242.03125 L 164.722656 259.589844 L 182.511719 263.484375 Z M 161.921875 240.582031 L 146.199219 254.925781 L 168.273438 277.914062 L 183.996094 263.566406 L 161.921875 240.582031 " fill-opacity="1" fill-rule="nonzero"/></g></g></g></g><g clip-path="url(#4e83a944ea)"><g clip-path="url(#c359851f62)"><g clip-path="url(#1fdbdf0ce3)"><g clip-path="url(#0dab383527)"><path fill="#ffffff" d="M 181.761719 264.167969 L 168.503906 262.429688 L 169.035156 275.78125 L 168.285156 276.464844 L 166.960938 262.226562 L 162.476562 261.640625 L 162.171875 257.238281 L 147.683594 255.011719 L 148.433594 254.328125 L 162.066406 255.726562 L 161.160156 242.714844 L 161.910156 242.03125 L 164.722656 259.589844 L 182.511719 263.484375 L 181.761719 264.167969 " fill-opacity="1" fill-rule="nonzero"/></g></g></g></g><g clip-path="url(#5c10e45f8f)"><g clip-path="url(#9543d1010c)"><g clip-path="url(#c8e6dbb1e4)"><g clip-path="url(#c663125a43)"><path fill="#d52839" d="M 285.761719 192.117188 L 279.527344 185.703125 L 273.949219 192.417969 L 273.253906 192.4375 L 278.804688 184.960938 L 276.695312 182.792969 L 278.464844 180.523438 L 271.796875 173.359375 L 272.492188 173.339844 L 279.074219 179.742188 L 284.308594 173.039062 L 285.003906 173.019531 L 278.78125 182.738281 L 286.460938 192.097656 Z M 285.644531 172.324219 L 271.050781 172.699219 L 272.609375 193.136719 L 287.207031 192.761719 L 285.644531 172.324219 " fill-opacity="1" fill-rule="nonzero"/></g></g></g></g><g clip-path="url(#bdf8624fd6)"><g clip-path="url(#923404e5bb)"><g clip-path="url(#93e1bf41fb)"><g clip-path="url(#15c6e018d2)"><path fill="#ffffff" d="M 285.761719 192.117188 L 279.527344 185.703125 L 273.949219 192.417969 L 273.253906 192.4375 L 278.804688 184.960938 L 276.695312 182.792969 L 278.464844 180.523438 L 271.796875 173.359375 L 272.492188 173.339844 L 279.074219 179.742188 L 284.308594 173.039062 L 285.003906 173.019531 L 278.78125 182.738281 L 286.460938 192.097656 L 285.761719 192.117188 " fill-opacity="1" fill-rule="nonzero"/></g></g></g></g><g clip-path="url(#add3c192fc)"><g clip-path="url(#bfc082d7de)"><g clip-path="url(#4cdb5bb3ce)"><g clip-path="url(#750e575bbd)"><path fill="#d52839" d="M 233.761719 258.277344 L 232.832031 252.5625 L 227.039062 253.933594 L 226.644531 253.679688 L 232.726562 251.898438 L 232.410156 249.964844 L 234.304688 249.457031 L 233.429688 243.183594 L 233.828125 243.441406 L 234.953125 249.285156 L 240.550781 247.785156 L 240.945312 248.039062 L 233.597656 250.730469 L 234.160156 258.535156 Z M 241.585938 247.917969 L 233.277344 242.554688 L 226.007812 253.796875 L 234.3125 259.164062 L 241.585938 247.917969 " fill-opacity="1" fill-rule="nonzero"/></g></g></g></g><g clip-path="url(#8e25e578d7)"><g clip-path="url(#6b4bac5ebb)"><g clip-path="url(#71f93977db)"><g clip-path="url(#91ad4cefa1)"><path fill="#ffffff" d="M 233.761719 258.277344 L 232.832031 252.5625 L 227.039062 253.933594 L 226.644531 253.679688 L 232.726562 251.898438 L 232.410156 249.964844 L 234.304688 249.457031 L 233.429688 243.183594 L 233.828125 243.441406 L 234.953125 249.285156 L 240.550781 247.785156 L 240.945312 248.039062 L 233.597656 250.730469 L 234.160156 258.535156 L 233.761719 258.277344 " fill-opacity="1" fill-rule="nonzero"/></g></g></g></g><g clip-path="url(#952785462e)"><g clip-path="url(#3cb6b3dd55)"><g clip-path="url(#7425580828)"><g clip-path="url(#f02503bbd3)"><path fill="#148b89" d="M 190.496094 157.695312 C 189.820312 158.753906 188.363281 159.035156 187.25 158.320312 C 186.132812 157.605469 185.773438 156.164062 186.453125 155.105469 C 187.132812 154.046875 188.585938 153.769531 189.703125 154.484375 C 190.820312 155.199219 191.175781 156.636719 190.496094 157.695312 " fill-opacity="1" fill-rule="nonzero"/></g></g></g></g><g clip-path="url(#b0d9eb6b14)"><g clip-path="url(#75af8589c4)"><g clip-path="url(#2a329ea413)"><g clip-path="url(#0a94460c1e)"><path fill="#ed5f2f" d="M 172.390625 184.574219 C 172.121094 184.992188 171.542969 185.105469 171.101562 184.820312 C 170.65625 184.535156 170.515625 183.96875 170.785156 183.546875 C 171.054688 183.125 171.632812 183.015625 172.074219 183.300781 C 172.515625 183.582031 172.660156 184.152344 172.390625 184.574219 " fill-opacity="1" fill-rule="nonzero"/></g></g></g></g><g clip-path="url(#0d4b7b55f2)"><g clip-path="url(#4922df55b5)"><g clip-path="url(#bb26fe52c8)"><g clip-path="url(#2fdea68437)"><path fill="#ed5f2f" d="M 273.824219 204.636719 C 273.554688 205.058594 272.976562 205.167969 272.535156 204.882812 C 272.09375 204.601562 271.949219 204.03125 272.21875 203.609375 C 272.488281 203.191406 273.066406 203.082031 273.507812 203.363281 C 273.953125 203.648438 274.09375 204.21875 273.824219 204.636719 " fill-opacity="1" fill-rule="nonzero"/></g></g></g></g><g clip-path="url(#3003db618d)"><g clip-path="url(#c2ecd9ce2a)"><g clip-path="url(#4548bbfa1f)"><g clip-path="url(#e414575db9)"><path fill="#ed5f2f" d="M 275.460938 165.804688 C 275.195312 166.222656 274.617188 166.335938 274.171875 166.050781 C 273.730469 165.765625 273.589844 165.199219 273.855469 164.777344 C 274.125 164.355469 274.703125 164.246094 275.148438 164.53125 C 275.589844 164.8125 275.730469 165.382812 275.460938 165.804688 " fill-opacity="1" fill-rule="nonzero"/></g></g></g></g><g clip-path="url(#1138fb4727)"><g clip-path="url(#8eccbe978c)"><g clip-path="url(#160cd92e10)"><g clip-path="url(#015d0037f5)"><path fill="#ed5f2f" d="M 191.726562 163.011719 C 191.457031 163.433594 190.878906 163.542969 190.4375 163.257812 C 189.996094 162.976562 189.855469 162.402344 190.121094 161.984375 C 190.390625 161.566406 190.96875 161.453125 191.410156 161.738281 C 191.855469 162.019531 191.996094 162.589844 191.726562 163.011719 " fill-opacity="1" fill-rule="nonzero"/></g></g></g></g><g clip-path="url(#b81a6f9979)"><g clip-path="url(#fa8e2d0e49)"><g clip-path="url(#9ecac0cefe)"><g clip-path="url(#68137c54b9)"><path fill="#d52839" d="M 201.332031 112.433594 C 201.0625 112.855469 200.484375 112.964844 200.042969 112.683594 C 199.601562 112.398438 199.457031 111.828125 199.726562 111.40625 C 199.996094 110.988281 200.574219 110.878906 201.015625 111.160156 C 201.457031 111.445312 201.601562 112.015625 201.332031 112.433594 " fill-opacity="1" fill-rule="nonzero"/></g></g></g></g><g clip-path="url(#f3901a81d2)"><g clip-path="url(#33f2c3e38c)"><g clip-path="url(#bf8a6916d8)"><g clip-path="url(#6e955b1484)"><path fill="#efc933" d="M 209.148438 109.738281 C 208.878906 110.15625 208.300781 110.265625 207.859375 109.984375 C 207.417969 109.699219 207.273438 109.128906 207.542969 108.710938 C 207.8125 108.289062 208.390625 108.179688 208.832031 108.460938 C 209.273438 108.746094 209.417969 109.316406 209.148438 109.738281 " fill-opacity="1" fill-rule="nonzero"/></g></g></g></g><g clip-path="url(#0c193a11f6)"><g clip-path="url(#ae34b7b73e)"><g clip-path="url(#899af7b013)"><g clip-path="url(#4b9ba0f5be)"><path fill="#148b89" d="M 101.59375 225.222656 L 92.21875 226.285156 L 94.988281 235.542969 L 94.597656 236.152344 L 91.128906 226.40625 L 87.960938 226.769531 L 86.960938 223.738281 L 76.660156 224.671875 L 77.046875 224.0625 L 86.617188 222.695312 L 83.65625 213.738281 L 84.046875 213.132812 L 89.128906 224.945312 L 101.984375 224.613281 Z M 83.792969 212.117188 L 75.628906 224.867188 L 94.847656 237.167969 L 103.011719 224.414062 L 83.792969 212.117188 " fill-opacity="1" fill-rule="nonzero"/></g></g></g></g><g clip-path="url(#a60a35c97c)"><g clip-path="url(#15360796da)"><g clip-path="url(#dd19b09b16)"><g clip-path="url(#4aa05980aa)"><path fill="#ffffff" d="M 101.59375 225.222656 L 92.21875 226.285156 L 94.988281 235.542969 L 94.597656 236.152344 L 91.128906 226.40625 L 87.960938 226.769531 L 86.960938 223.738281 L 76.660156 224.671875 L 77.046875 224.0625 L 86.617188 222.695312 L 83.65625 213.738281 L 84.046875 213.132812 L 89.128906 224.945312 L 101.984375 224.613281 L 101.59375 225.222656 " fill-opacity="1" fill-rule="nonzero"/></g></g></g></g><g clip-path="url(#ef474a03a3)"><g clip-path="url(#94ecbf9081)"><g clip-path="url(#fa01bfa5aa)"><g clip-path="url(#19cca2222f)"><path fill="#efc933" d="M 83.675781 221.351562 L 72.621094 220.140625 L 73.3125 231.253906 L 72.703125 231.835938 L 71.335938 220 L 67.597656 219.589844 L 67.261719 215.929688 L 55.175781 214.332031 L 55.789062 213.75 L 67.144531 214.671875 L 66.152344 203.847656 L 66.761719 203.265625 L 69.425781 217.84375 L 84.285156 220.769531 Z M 66.746094 202.058594 L 53.941406 214.289062 L 72.71875 233.042969 L 85.523438 220.8125 L 66.746094 202.058594 " fill-opacity="1" fill-rule="nonzero"/></g></g></g></g><g clip-path="url(#1e9024d738)"><g clip-path="url(#ac13bdc29b)"><g clip-path="url(#590006aa69)"><g clip-path="url(#7e8f4687de)"><path fill="#ffffff" d="M 83.675781 221.351562 L 72.621094 220.140625 L 73.3125 231.253906 L 72.703125 231.835938 L 71.335938 220 L 67.597656 219.589844 L 67.261719 215.929688 L 55.175781 214.332031 L 55.789062 213.75 L 67.144531 214.671875 L 66.152344 203.847656 L 66.761719 203.265625 L 69.425781 217.84375 L 84.285156 220.769531 L 83.675781 221.351562 " fill-opacity="1" fill-rule="nonzero"/></g></g></g></g><g clip-path="url(#18724c3ddf)"><g clip-path="url(#0be05a8abb)"><g clip-path="url(#f005cb8674)"><g clip-path="url(#165674eca5)"><path fill="#d52839" d="M 119.960938 208.964844 L 111.203125 216.347656 L 120.445312 224.5 L 120.476562 225.414062 L 110.1875 217.207031 L 107.226562 219.703125 L 104.101562 217.097656 L 94.316406 224.953125 L 94.289062 224.039062 L 103.03125 216.203125 L 93.800781 208.503906 L 93.773438 207.589844 L 107.136719 216.960938 L 119.929688 208.050781 Z M 92.8125 206.660156 L 93.410156 225.851562 L 121.4375 226.34375 L 120.835938 207.152344 L 92.8125 206.660156 " fill-opacity="1" fill-rule="nonzero"/></g></g></g></g><g clip-path="url(#018bdf662d)"><g clip-path="url(#a942509ca8)"><g clip-path="url(#935d62118e)"><g clip-path="url(#e3a0329f39)"><path fill="#ffffff" d="M 119.960938 208.964844 L 111.203125 216.347656 L 120.445312 224.5 L 120.476562 225.414062 L 110.1875 217.207031 L 107.226562 219.703125 L 104.101562 217.097656 L 94.316406 224.953125 L 94.289062 224.039062 L 103.03125 216.203125 L 93.800781 208.503906 L 93.773438 207.589844 L 107.136719 216.960938 L 119.929688 208.050781 L 119.960938 208.964844 " fill-opacity="1" fill-rule="nonzero"/></g></g></g></g><g clip-path="url(#a91a4be479)"><g clip-path="url(#a498109fc9)"><g clip-path="url(#91b06c246d)"><g clip-path="url(#85a78f45f3)"><path fill="#efc933" d="M 143.070312 238.339844 L 132.316406 235.230469 L 130.980469 246.195312 L 130.269531 246.65625 L 131.066406 234.871094 L 127.429688 233.820312 L 127.761719 230.191406 L 116.054688 226.53125 L 116.765625 226.070312 L 127.875 228.941406 L 128.855469 218.214844 L 129.566406 217.753906 L 129.5625 232.4375 L 143.78125 237.875 Z M 129.769531 216.574219 L 114.835938 226.273438 L 130.066406 247.835938 L 145 238.132812 L 129.769531 216.574219 " fill-opacity="1" fill-rule="nonzero"/></g></g></g></g><g clip-path="url(#f8707a2533)"><g clip-path="url(#6ed9877724)"><g clip-path="url(#9741c2d106)"><g clip-path="url(#53288a1316)"><path fill="#ffffff" d="M 143.070312 238.339844 L 132.316406 235.230469 L 130.980469 246.195312 L 130.269531 246.65625 L 131.066406 234.871094 L 127.429688 233.820312 L 127.761719 230.191406 L 116.054688 226.53125 L 116.765625 226.070312 L 127.875 228.941406 L 128.855469 218.214844 L 129.566406 217.753906 L 129.5625 232.4375 L 143.78125 237.875 L 143.070312 238.339844 " fill-opacity="1" fill-rule="nonzero"/></g></g></g></g><g clip-path="url(#37c5bfcc2b)"><g clip-path="url(#35d4a4c8c6)"><g clip-path="url(#7b318b7905)"><g clip-path="url(#5df070e440)"><path fill="#ed5f2f" d="M 166.28125 213.355469 L 158.65625 221.132812 L 168.109375 228.128906 L 168.21875 228.996094 L 157.769531 222.035156 L 155.1875 224.667969 L 152.007812 222.449219 L 143.449219 230.765625 L 143.34375 229.894531 L 150.914062 221.683594 L 141.515625 215.121094 L 141.40625 214.253906 L 154.867188 222.058594 L 166.175781 212.488281 Z M 140.414062 213.445312 L 142.675781 231.699219 L 169.210938 229.804688 L 166.949219 211.554688 L 140.414062 213.445312 " fill-opacity="1" fill-rule="nonzero"/></g></g></g></g><g clip-path="url(#a89f12601b)"><g clip-path="url(#7360b7cc30)"><g clip-path="url(#66ee6b0926)"><g clip-path="url(#d16217bd31)"><path fill="#ffffff" d="M 166.28125 213.355469 L 158.65625 221.132812 L 168.109375 228.128906 L 168.21875 228.996094 L 157.769531 222.035156 L 155.1875 224.667969 L 152.007812 222.449219 L 143.449219 230.765625 L 143.34375 229.894531 L 150.914062 221.683594 L 141.515625 215.121094 L 141.40625 214.253906 L 154.867188 222.058594 L 166.175781 212.488281 L 166.28125 213.355469 " fill-opacity="1" fill-rule="nonzero"/></g></g></g></g><g clip-path="url(#93c7f6b1f2)"><g clip-path="url(#586ecd58b8)"><g clip-path="url(#0373e5f7db)"><g clip-path="url(#b0d4b495b2)"><path fill="#f48323" d="M 249.046875 132.371094 L 272.757812 103.332031 L 308.464844 115.011719 L 283.753906 140.671875 L 249.042969 132.371094 " fill-opacity="1" fill-rule="nonzero"/></g></g></g></g><g clip-path="url(#80390e5091)"><g clip-path="url(#db1f254222)"><g clip-path="url(#672451b761)"><g clip-path="url(#d6afab515c)"><path fill="#63a335" d="M 265.960938 104.328125 C 266.199219 104.1875 266.503906 104.265625 266.640625 104.503906 L 291.1875 146.113281 C 291.328125 146.351562 291.253906 146.65625 291.015625 146.796875 L 272.351562 157.855469 C 272.117188 157.996094 271.808594 157.914062 271.671875 157.675781 L 247.125 116.070312 C 246.984375 115.832031 247.0625 115.523438 247.300781 115.386719 L 265.960938 104.328125 " fill-opacity="1" fill-rule="nonzero"/></g></g></g></g><g clip-path="url(#7677f7c15f)"><g clip-path="url(#fe34596fb9)"><g clip-path="url(#697403aa51)"><g clip-path="url(#23dabbff18)"><path fill="#7fcb4a" d="M 265.601562 107.46875 C 265.796875 107.355469 266.058594 107.433594 266.183594 107.644531 L 288.222656 145 C 288.347656 145.214844 288.292969 145.484375 288.097656 145.597656 L 272.710938 154.714844 C 272.519531 154.828125 272.257812 154.75 272.132812 154.535156 L 250.09375 117.179688 C 249.964844 116.96875 250.023438 116.699219 250.21875 116.582031 L 265.601562 107.46875 " fill-opacity="1" fill-rule="nonzero"/></g></g></g></g><g clip-path="url(#6491d3c9d8)"><g clip-path="url(#f9993fe96d)"><g clip-path="url(#fd650641f2)"><g clip-path="url(#2bb2b743d1)"><path fill="#63a335" d="M 265.972656 125.6875 C 268.9375 123.925781 272.777344 124.917969 274.535156 127.902344 C 276.296875 130.886719 275.316406 134.734375 272.347656 136.496094 C 269.371094 138.257812 265.539062 137.261719 263.777344 134.277344 C 262.015625 131.292969 262.996094 127.449219 265.972656 125.6875 " fill-opacity="1" fill-rule="nonzero"/></g></g></g></g><g clip-path="url(#76c4f1d448)"><g clip-path="url(#fecc808f8a)"><g clip-path="url(#f6708c2afa)"><g clip-path="url(#fe8de23a29)"><path fill="#63a335" d="M 272.710938 154.714844 L 276.878906 152.242188 C 275.398438 149.734375 272.175781 148.898438 269.679688 150.378906 L 272.132812 154.535156 C 272.257812 154.75 272.519531 154.828125 272.710938 154.714844 " fill-opacity="1" fill-rule="nonzero"/></g></g></g></g><g clip-path="url(#9a18154b2a)"><g clip-path="url(#923cf68f7b)"><g clip-path="url(#54f7b07e4e)"><g clip-path="url(#faa7ace211)"><path fill="#70b646" d="M 288.242188 145.035156 L 285.769531 140.84375 C 283.269531 142.328125 282.449219 145.558594 283.929688 148.070312 L 288.0625 145.617188 C 288.277344 145.492188 288.355469 145.230469 288.242188 145.035156 " fill-opacity="1" fill-rule="nonzero"/></g></g></g></g><g clip-path="url(#2d1071038a)"><g clip-path="url(#45bfa473a9)"><g clip-path="url(#98a047a56f)"><g clip-path="url(#3a0f41b44d)"><path fill="#63a335" d="M 250.21875 116.582031 L 254.386719 114.113281 C 255.871094 116.625 255.042969 119.855469 252.542969 121.335938 L 250.09375 117.179688 C 249.964844 116.96875 250.023438 116.699219 250.21875 116.582031 " fill-opacity="1" fill-rule="nonzero"/></g></g></g></g><g clip-path="url(#8bc4d778d7)"><g clip-path="url(#5732bd4b31)"><g clip-path="url(#8ed40afe5a)"><g clip-path="url(#dc8bd8a4a0)"><path fill="#63a335" d="M 266.164062 107.613281 L 268.636719 111.800781 C 266.136719 113.28125 262.914062 112.449219 261.433594 109.9375 L 265.570312 107.488281 C 265.78125 107.363281 266.050781 107.417969 266.164062 107.613281 " fill-opacity="1" fill-rule="nonzero"/></g></g></g></g><g clip-path="url(#cf9014fded)"><g clip-path="url(#c7b7dbea76)"><g clip-path="url(#389718b101)"><g clip-path="url(#5ccc9b1c12)"><path fill="#70b646" d="M 287.5 97.75 C 287.777344 97.730469 288.015625 97.941406 288.03125 98.21875 L 291.265625 146.421875 C 291.285156 146.695312 291.074219 146.933594 290.800781 146.949219 L 269.15625 148.367188 C 268.882812 148.382812 268.644531 148.175781 268.628906 147.902344 L 265.394531 99.695312 C 265.375 99.421875 265.582031 99.183594 265.859375 99.164062 L 287.5 97.75 " fill-opacity="1" fill-rule="nonzero"/></g></g></g></g><g clip-path="url(#27c32a65bd)"><g clip-path="url(#39458801a1)"><g clip-path="url(#23baa9e495)"><g clip-path="url(#9d829b0141)"><path fill="#8dd260" d="M 285.769531 100.390625 C 285.996094 100.375 286.195312 100.5625 286.210938 100.808594 L 289.109375 144.089844 C 289.128906 144.335938 288.957031 144.546875 288.734375 144.5625 L 270.890625 145.730469 C 270.664062 145.742188 270.464844 145.554688 270.449219 145.308594 L 267.550781 102.03125 C 267.53125 101.78125 267.703125 101.570312 267.925781 101.554688 L 285.769531 100.390625 " fill-opacity="1" fill-rule="nonzero"/></g></g></g></g><g clip-path="url(#7cf25d28fd)"><g clip-path="url(#fdcf67cc33)"><g clip-path="url(#065f6aebc4)"><g clip-path="url(#9655b3bfca)"><path fill="#70b646" d="M 277.910156 116.796875 C 281.355469 116.574219 284.335938 119.191406 284.570312 122.648438 C 284.800781 126.109375 282.195312 129.09375 278.75 129.320312 C 275.304688 129.542969 272.320312 126.921875 272.089844 123.464844 C 271.859375 120.007812 274.464844 117.023438 277.910156 116.796875 " fill-opacity="1" fill-rule="nonzero"/></g></g></g></g><g clip-path="url(#e89878cf2a)"><g clip-path="url(#a1de8f4031)"><g clip-path="url(#361b9cfe3f)"><g clip-path="url(#824eb19824)"><path fill="#70b646" d="M 270.890625 145.730469 L 275.726562 145.410156 C 275.53125 142.503906 273.023438 140.300781 270.125 140.488281 L 270.449219 145.308594 C 270.464844 145.554688 270.664062 145.742188 270.890625 145.730469 " fill-opacity="1" fill-rule="nonzero"/></g></g></g></g><g clip-path="url(#21ddd59adf)"><g clip-path="url(#1fcf715e6c)"><g clip-path="url(#b1ad1b4f30)"><g clip-path="url(#60533e945d)"><path fill="#70b646" d="M 289.117188 144.125 L 288.789062 139.269531 C 285.890625 139.460938 283.699219 141.972656 283.894531 144.878906 L 288.695312 144.566406 C 288.941406 144.546875 289.128906 144.351562 289.117188 144.125 " fill-opacity="1" fill-rule="nonzero"/></g></g></g></g><g clip-path="url(#ebc4009341)"><g clip-path="url(#7e85baa97f)"><g clip-path="url(#67a920711c)"><g clip-path="url(#f55c2c3808)"><path fill="#70b646" d="M 267.925781 101.554688 L 272.761719 101.238281 C 272.957031 104.144531 270.769531 106.65625 267.871094 106.84375 L 267.550781 102.03125 C 267.53125 101.78125 267.703125 101.570312 267.925781 101.554688 " fill-opacity="1" fill-rule="nonzero"/></g></g></g></g><g clip-path="url(#a3cd1a219d)"><g clip-path="url(#01923b1582)"><g clip-path="url(#09281a9fec)"><g clip-path="url(#e962a4b50c)"><path fill="#70b646" d="M 286.207031 100.773438 L 286.53125 105.625 C 283.636719 105.816406 281.128906 103.609375 280.933594 100.707031 L 285.734375 100.390625 C 285.980469 100.378906 286.191406 100.546875 286.207031 100.773438 " fill-opacity="1" fill-rule="nonzero"/></g></g></g></g><g clip-path="url(#cca3c79ef7)"><g clip-path="url(#01ffc6b83a)"><g clip-path="url(#62cfa188a4)"><g clip-path="url(#fc2fa7fb4c)"><path fill="#70b646" d="M 310.019531 101.425781 C 310.273438 101.539062 310.390625 101.832031 310.28125 102.085938 L 291.265625 146.421875 C 291.15625 146.675781 290.863281 146.789062 290.609375 146.679688 L 270.683594 138.039062 C 270.429688 137.929688 270.3125 137.636719 270.421875 137.382812 L 289.4375 93.046875 C 289.546875 92.792969 289.835938 92.679688 290.09375 92.789062 L 310.019531 101.425781 " fill-opacity="1" fill-rule="nonzero"/></g></g></g></g><g clip-path="url(#5b6d13402a)"><g clip-path="url(#7b34db5722)"><g clip-path="url(#a910524ba2)"><g clip-path="url(#51cf630e72)"><path fill="#8dd260" d="M 307.277344 102.980469 C 307.484375 103.070312 307.578125 103.328125 307.480469 103.554688 L 290.40625 143.363281 C 290.308594 143.589844 290.058594 143.699219 289.851562 143.609375 L 273.421875 136.488281 C 273.214844 136.398438 273.125 136.140625 273.222656 135.914062 L 290.296875 96.105469 C 290.394531 95.878906 290.640625 95.769531 290.847656 95.859375 L 307.277344 102.980469 " fill-opacity="1" fill-rule="nonzero"/></g></g></g></g><g clip-path="url(#a9d1eedff2)"><g clip-path="url(#7a040062a2)"><g clip-path="url(#07a20bff72)"><g clip-path="url(#c8fe6af288)"><path fill="#70b646" d="M 292.820312 113.976562 C 295.992188 115.351562 297.460938 119.042969 296.097656 122.226562 C 294.730469 125.40625 291.054688 126.867188 287.882812 125.492188 C 284.707031 124.117188 283.242188 120.425781 284.605469 117.242188 C 285.96875 114.0625 289.648438 112.601562 292.820312 113.976562 " fill-opacity="1" fill-rule="nonzero"/></g></g></g></g><g clip-path="url(#75b81d9711)"><g clip-path="url(#c959a6cf29)"><g clip-path="url(#64db7a2bcc)"><g clip-path="url(#91244aa1b1)"><path fill="#70b646" d="M 273.421875 136.488281 L 277.875 138.417969 C 279.019531 135.746094 277.789062 132.640625 275.121094 131.484375 L 273.222656 135.914062 C 273.125 136.140625 273.214844 136.398438 273.421875 136.488281 " fill-opacity="1" fill-rule="nonzero"/></g></g></g></g><g clip-path="url(#e23c4a9e3a)"><g clip-path="url(#1a1a258317)"><g clip-path="url(#17fb05e16c)"><g clip-path="url(#0119f25681)"><path fill="#70b646" d="M 290.390625 143.394531 L 292.304688 138.933594 C 289.636719 137.777344 286.542969 139.003906 285.398438 141.679688 L 289.820312 143.597656 C 290.046875 143.695312 290.300781 143.605469 290.390625 143.394531 " fill-opacity="1" fill-rule="nonzero"/></g></g></g></g><g clip-path="url(#f71faee8a2)"><g clip-path="url(#27c62ccfff)"><g clip-path="url(#82969d0da8)"><g clip-path="url(#269a3f5414)"><path fill="#70b646" d="M 290.847656 95.859375 L 295.300781 97.785156 C 294.15625 100.460938 291.0625 101.691406 288.394531 100.535156 L 290.296875 96.105469 C 290.394531 95.878906 290.640625 95.769531 290.847656 95.859375 " fill-opacity="1" fill-rule="nonzero"/></g></g></g></g><g clip-path="url(#6bfb5503ac)"><g clip-path="url(#d760b72b6d)"><g clip-path="url(#7df1540454)"><g clip-path="url(#c0076b41df)"><path fill="#70b646" d="M 307.496094 103.523438 L 305.578125 107.984375 C 302.914062 106.828125 301.679688 103.722656 302.828125 101.050781 L 307.242188 102.964844 C 307.472656 103.0625 307.585938 103.3125 307.496094 103.523438 " fill-opacity="1" fill-rule="nonzero"/></g></g></g></g><g clip-path="url(#9b93ce32c1)"><g clip-path="url(#4d755660ca)"><g clip-path="url(#b9e8679712)"><g clip-path="url(#8fb43411e8)"><path fill="#f8bc23" d="M 283.757812 140.671875 L 249.3125 132.289062 L 249.046875 132.371094 L 259.089844 166.46875 L 318.472656 148.976562 L 308.464844 115.011719 L 283.753906 140.671875 " fill-opacity="1" fill-rule="nonzero"/></g></g></g></g><g clip-path="url(#dcfa81282f)"><g clip-path="url(#81e47c57e9)"><g clip-path="url(#448da6145b)"><g clip-path="url(#6bbd64d008)"><path fill="#dfa11b" d="M 318.46875 148.976562 L 259.089844 166.46875 L 283.757812 140.671875 Z M 318.46875 148.976562 " fill-opacity="1" fill-rule="nonzero"/></g></g></g></g></svg>