<svg xmlns="http://www.w3.org/2000/svg" xmlns:xlink="http://www.w3.org/1999/xlink" width="1366" zoomAndPan="magnify" viewBox="0 0 1024.5 576" height="768" preserveAspectRatio="xMidYMid meet" version="1.0"><defs><clipPath id="4397224abe"><path d="M 0 0.140625 L 1024 0.140625 L 1024 575.859375 L 0 575.859375 Z M 0 0.140625 " clip-rule="nonzero"/></clipPath><clipPath id="b0e2604aa6"><path d="M 0 0.140625 L 142 0.140625 L 142 230.277344 L 0 230.277344 Z M 0 0.140625 " clip-rule="nonzero"/></clipPath><clipPath id="61cf31cf3b"><path d="M 0 0.140625 L 173 0.140625 L 173 230.277344 L 0 230.277344 Z M 0 0.140625 " clip-rule="nonzero"/></clipPath><clipPath id="29bbaa78b8"><path d="M 20 0.140625 L 203 0.140625 L 203 230.277344 L 20 230.277344 Z M 20 0.140625 " clip-rule="nonzero"/></clipPath><clipPath id="f970b707db"><path d="M 51 0.140625 L 233 0.140625 L 233 230.277344 L 51 230.277344 Z M 51 0.140625 " clip-rule="nonzero"/></clipPath><clipPath id="ec9809bffe"><path d="M 81 0.140625 L 264 0.140625 L 264 230.277344 L 81 230.277344 Z M 81 0.140625 " clip-rule="nonzero"/></clipPath><clipPath id="99e3c75a40"><path d="M 112 0.140625 L 294 0.140625 L 294 230.277344 L 112 230.277344 Z M 112 0.140625 " clip-rule="nonzero"/></clipPath><clipPath id="ffd67821f3"><path d="M 142 0.140625 L 325 0.140625 L 325 230.277344 L 142 230.277344 Z M 142 0.140625 " clip-rule="nonzero"/></clipPath><clipPath id="b18cebad13"><path d="M 172 0.140625 L 354.386719 0.140625 L 354.386719 230.277344 L 172 230.277344 Z M 172 0.140625 " clip-rule="nonzero"/></clipPath><clipPath id="925602f513"><path d="M 0 220.929688 L 28 220.929688 L 28 451.066406 L 0 451.066406 Z M 0 220.929688 " clip-rule="nonzero"/></clipPath><clipPath id="c5f7c8ddca"><path d="M 0 220.929688 L 58 220.929688 L 58 451.066406 L 0 451.066406 Z M 0 220.929688 " clip-rule="nonzero"/></clipPath><clipPath id="89c8d7302b"><path d="M 0 220.929688 L 89 220.929688 L 89 451.066406 L 0 451.066406 Z M 0 220.929688 " clip-rule="nonzero"/></clipPath><clipPath id="6a3a794643"><path d="M 0 220.929688 L 119 220.929688 L 119 451.066406 L 0 451.066406 Z M 0 220.929688 " clip-rule="nonzero"/></clipPath><clipPath id="7feee681f2"><path d="M 0 220.929688 L 150 220.929688 L 150 451.066406 L 0 451.066406 Z M 0 220.929688 " clip-rule="nonzero"/></clipPath><clipPath id="4f0673d04b"><path d="M 0 220.929688 L 179.273438 220.929688 L 179.273438 451.066406 L 0 451.066406 Z M 0 220.929688 " clip-rule="nonzero"/></clipPath><clipPath id="9084193477"><path d="M 848.125 124.785156 L 1024 124.785156 L 1024 354.921875 L 848.125 354.921875 Z M 848.125 124.785156 " clip-rule="nonzero"/></clipPath><clipPath id="4898604c7a"><path d="M 878 124.785156 L 1024 124.785156 L 1024 354.921875 L 878 354.921875 Z M 878 124.785156 " clip-rule="nonzero"/></clipPath><clipPath id="67bf595dce"><path d="M 908 124.785156 L 1024 124.785156 L 1024 354.921875 L 908 354.921875 Z M 908 124.785156 " clip-rule="nonzero"/></clipPath><clipPath id="07c62f65d6"><path d="M 939 124.785156 L 1024 124.785156 L 1024 354.921875 L 939 354.921875 Z M 939 124.785156 " clip-rule="nonzero"/></clipPath><clipPath id="5f9335e8e2"><path d="M 969 124.785156 L 1024 124.785156 L 1024 354.921875 L 969 354.921875 Z M 969 124.785156 " clip-rule="nonzero"/></clipPath><clipPath id="337076081f"><path d="M 1000 124.785156 L 1024 124.785156 L 1024 354.921875 L 1000 354.921875 Z M 1000 124.785156 " clip-rule="nonzero"/></clipPath><clipPath id="4eaf4371a4"><path d="M 673.011719 345.570312 L 855 345.570312 L 855 575.710938 L 673.011719 575.710938 Z M 673.011719 345.570312 " clip-rule="nonzero"/></clipPath><clipPath id="9338bfea13"><path d="M 703 345.570312 L 886 345.570312 L 886 575.710938 L 703 575.710938 Z M 703 345.570312 " clip-rule="nonzero"/></clipPath><clipPath id="2219b7de22"><path d="M 733 345.570312 L 916 345.570312 L 916 575.710938 L 733 575.710938 Z M 733 345.570312 " clip-rule="nonzero"/></clipPath><clipPath id="bc72349890"><path d="M 764 345.570312 L 946 345.570312 L 946 575.710938 L 764 575.710938 Z M 764 345.570312 " clip-rule="nonzero"/></clipPath><clipPath id="44856f9c76"><path d="M 794 345.570312 L 977 345.570312 L 977 575.710938 L 794 575.710938 Z M 794 345.570312 " clip-rule="nonzero"/></clipPath><clipPath id="e709959fb0"><path d="M 825 345.570312 L 1007 345.570312 L 1007 575.710938 L 825 575.710938 Z M 825 345.570312 " clip-rule="nonzero"/></clipPath><clipPath id="a34468d141"><path d="M 855 345.570312 L 1024 345.570312 L 1024 575.710938 L 855 575.710938 Z M 855 345.570312 " clip-rule="nonzero"/></clipPath><clipPath id="73c3a1c695"><path d="M 885 345.570312 L 1024 345.570312 L 1024 575.710938 L 885 575.710938 Z M 885 345.570312 " clip-rule="nonzero"/></clipPath></defs><g clip-path="url(#4397224abe)"><path fill="#ffffff" d="M 0 0.140625 L 1024 0.140625 L 1024 575.859375 L 0 575.859375 Z M 0 0.140625 " fill-opacity="1" fill-rule="nonzero"/><path fill="#dfd5ca" d="M 0 0.140625 L 1024 0.140625 L 1024 575.859375 L 0 575.859375 Z M 0 0.140625 " fill-opacity="1" fill-rule="nonzero"/></g><g clip-path="url(#b0e2604aa6)"><path fill="#ede4da" d="M -36.992188 230.4375 L -39.910156 226.742188 L 138.789062 0.167969 L 141.707031 3.863281 L -36.992188 230.4375 " fill-opacity="1" fill-rule="nonzero"/></g><g clip-path="url(#61cf31cf3b)"><path fill="#ede4da" d="M -6.578125 230.4375 L -9.492188 226.742188 L 169.203125 0.167969 L 172.121094 3.863281 L -6.578125 230.4375 " fill-opacity="1" fill-rule="nonzero"/></g><g clip-path="url(#29bbaa78b8)"><path fill="#ede4da" d="M 23.835938 230.4375 L 20.921875 226.742188 L 199.617188 0.167969 L 202.535156 3.863281 L 23.835938 230.4375 " fill-opacity="1" fill-rule="nonzero"/></g><g clip-path="url(#f970b707db)"><path fill="#ede4da" d="M 54.25 230.4375 L 51.335938 226.742188 L 230.03125 0.167969 L 232.949219 3.863281 L 54.25 230.4375 " fill-opacity="1" fill-rule="nonzero"/></g><g clip-path="url(#ec9809bffe)"><path fill="#ede4da" d="M 84.667969 230.4375 L 81.75 226.742188 L 260.449219 0.167969 L 263.363281 3.863281 L 84.667969 230.4375 " fill-opacity="1" fill-rule="nonzero"/></g><g clip-path="url(#99e3c75a40)"><path fill="#ede4da" d="M 115.082031 230.4375 L 112.164062 226.742188 L 290.863281 0.167969 L 293.777344 3.863281 L 115.082031 230.4375 " fill-opacity="1" fill-rule="nonzero"/></g><g clip-path="url(#ffd67821f3)"><path fill="#ede4da" d="M 145.496094 230.4375 L 142.582031 226.742188 L 321.277344 0.167969 L 324.191406 3.863281 L 145.496094 230.4375 " fill-opacity="1" fill-rule="nonzero"/></g><g clip-path="url(#b18cebad13)"><path fill="#ede4da" d="M 175.910156 230.4375 L 172.992188 226.742188 L 351.695312 0.167969 L 354.609375 3.863281 L 175.910156 230.4375 " fill-opacity="1" fill-rule="nonzero"/></g><g clip-path="url(#925602f513)"><path fill="#ede4da" d="M -151.277344 451.226562 L -154.191406 447.53125 L 24.503906 220.957031 L 27.421875 224.652344 L -151.277344 451.226562 " fill-opacity="1" fill-rule="nonzero"/></g><g clip-path="url(#c5f7c8ddca)"><path fill="#ede4da" d="M -120.863281 451.226562 L -123.777344 447.53125 L 54.917969 220.957031 L 57.835938 224.652344 L -120.863281 451.226562 " fill-opacity="1" fill-rule="nonzero"/></g><g clip-path="url(#89c8d7302b)"><path fill="#ede4da" d="M -90.449219 451.226562 L -93.363281 447.53125 L 85.335938 220.957031 L 88.25 224.652344 L -90.449219 451.226562 " fill-opacity="1" fill-rule="nonzero"/></g><g clip-path="url(#6a3a794643)"><path fill="#ede4da" d="M -60.035156 451.226562 L -62.949219 447.53125 L 115.75 220.957031 L 118.664062 224.652344 L -60.035156 451.226562 " fill-opacity="1" fill-rule="nonzero"/></g><g clip-path="url(#7feee681f2)"><path fill="#ede4da" d="M -29.617188 451.226562 L -32.535156 447.53125 L 146.164062 220.957031 L 149.078125 224.652344 L -29.617188 451.226562 " fill-opacity="1" fill-rule="nonzero"/></g><g clip-path="url(#4f0673d04b)"><path fill="#ede4da" d="M 0.796875 451.226562 L -2.121094 447.53125 L 176.582031 220.957031 L 179.496094 224.652344 L 0.796875 451.226562 " fill-opacity="1" fill-rule="nonzero"/></g><g clip-path="url(#9084193477)"><path fill="#ede4da" d="M 851.054688 355.082031 L 848.140625 351.386719 L 1026.835938 124.8125 L 1029.753906 128.507812 L 851.054688 355.082031 " fill-opacity="1" fill-rule="nonzero"/></g><g clip-path="url(#4898604c7a)"><path fill="#ede4da" d="M 881.46875 355.082031 L 878.554688 351.386719 L 1057.25 124.8125 L 1060.167969 128.507812 L 881.46875 355.082031 " fill-opacity="1" fill-rule="nonzero"/></g><g clip-path="url(#67bf595dce)"><path fill="#ede4da" d="M 911.886719 355.082031 L 908.96875 351.386719 L 1087.667969 124.8125 L 1090.582031 128.507812 L 911.886719 355.082031 " fill-opacity="1" fill-rule="nonzero"/></g><g clip-path="url(#07c62f65d6)"><path fill="#ede4da" d="M 942.300781 355.082031 L 939.382812 351.386719 L 1118.082031 124.8125 L 1120.996094 128.507812 L 942.300781 355.082031 " fill-opacity="1" fill-rule="nonzero"/></g><g clip-path="url(#5f9335e8e2)"><path fill="#ede4da" d="M 972.714844 355.082031 L 969.796875 351.386719 L 1148.496094 124.8125 L 1151.410156 128.507812 L 972.714844 355.082031 " fill-opacity="1" fill-rule="nonzero"/></g><g clip-path="url(#337076081f)"><path fill="#ede4da" d="M 1003.128906 355.082031 L 1000.210938 351.386719 L 1178.910156 124.8125 L 1181.828125 128.507812 L 1003.128906 355.082031 " fill-opacity="1" fill-rule="nonzero"/></g><g clip-path="url(#4eaf4371a4)"><path fill="#ede4da" d="M 675.941406 575.871094 L 673.023438 572.175781 L 851.722656 345.601562 L 854.640625 349.296875 L 675.941406 575.871094 " fill-opacity="1" fill-rule="nonzero"/></g><g clip-path="url(#9338bfea13)"><path fill="#ede4da" d="M 706.355469 575.871094 L 703.441406 572.175781 L 882.136719 345.601562 L 885.054688 349.296875 L 706.355469 575.871094 " fill-opacity="1" fill-rule="nonzero"/></g><g clip-path="url(#2219b7de22)"><path fill="#ede4da" d="M 736.769531 575.871094 L 733.855469 572.175781 L 912.554688 345.601562 L 915.46875 349.296875 L 736.769531 575.871094 " fill-opacity="1" fill-rule="nonzero"/></g><g clip-path="url(#bc72349890)"><path fill="#ede4da" d="M 767.183594 575.871094 L 764.269531 572.175781 L 942.96875 345.601562 L 945.882812 349.296875 L 767.183594 575.871094 " fill-opacity="1" fill-rule="nonzero"/></g><g clip-path="url(#44856f9c76)"><path fill="#ede4da" d="M 797.601562 575.871094 L 794.683594 572.175781 L 973.382812 345.601562 L 976.296875 349.296875 L 797.601562 575.871094 " fill-opacity="1" fill-rule="nonzero"/></g><g clip-path="url(#e709959fb0)"><path fill="#ede4da" d="M 828.015625 575.871094 L 825.097656 572.175781 L 1003.796875 345.601562 L 1006.714844 349.296875 L 828.015625 575.871094 " fill-opacity="1" fill-rule="nonzero"/></g><g clip-path="url(#a34468d141)"><path fill="#ede4da" d="M 858.429688 575.871094 L 855.515625 572.175781 L 1034.214844 345.601562 L 1037.128906 349.296875 L 858.429688 575.871094 " fill-opacity="1" fill-rule="nonzero"/></g><g clip-path="url(#73c3a1c695)"><path fill="#ede4da" d="M 888.84375 575.871094 L 885.929688 572.175781 L 1064.628906 345.601562 L 1067.542969 349.296875 L 888.84375 575.871094 " fill-opacity="1" fill-rule="nonzero"/></g></svg>